<svg width="95" height="93" viewBox="0 0 95 93" fill="none" xmlns="http://www.w3.org/2000/svg">
<path fill-rule="evenodd" clip-rule="evenodd" d="M16.0294 62.5032C16.0294 64.923 14.0616 66.8915 11.6425 66.8915C9.22269 66.8915 7.25419 64.9237 7.25419 62.5032C7.25419 60.0834 9.22341 58.1149 11.6425 58.1149C14.0616 58.1163 16.0294 60.0834 16.0294 62.5032ZM5.31443 62.5032C5.31443 65.9911 8.15248 68.8291 11.6411 68.8291C15.1289 68.8291 17.967 65.9911 17.967 62.5032C17.967 59.0154 15.1289 56.1766 11.6411 56.1766C8.15248 56.178 5.31443 59.0161 5.31443 62.5032ZM87.7446 62.5032C87.7446 64.923 85.7769 66.8915 83.3564 66.8915C80.9387 66.8915 78.9695 64.9237 78.9695 62.5032C78.9695 60.0834 80.9387 58.1149 83.3564 58.1149C85.7769 58.1163 87.7446 60.0834 87.7446 62.5032ZM77.0297 62.5032C77.0297 65.9911 79.8685 68.8291 83.3556 68.8291C86.8456 68.8291 89.6823 65.9911 89.6823 62.5032C89.6823 59.0154 86.8456 56.1766 83.3556 56.1766C79.8692 56.178 77.0297 59.0161 77.0297 62.5032ZM47.4995 66.8915C45.0797 66.8915 43.1126 64.9237 43.1126 62.5032C43.1126 60.0834 45.0804 58.1149 47.4995 58.1149C49.9193 58.1149 51.8878 60.0827 51.8878 62.5032C51.8878 64.9237 49.9193 66.8915 47.4995 66.8915ZM47.4995 56.178C44.0116 56.178 41.1736 59.0161 41.1736 62.5047C41.1736 65.9925 44.0116 68.8306 47.4995 68.8306C50.9881 68.8306 53.8261 65.9925 53.8261 62.5047C53.8261 59.0161 50.9881 56.178 47.4995 56.178ZM93.0641 90.5033H73.6522V77.8872C73.6522 75.8801 74.8143 74.0268 76.5905 73.1227C78.5703 74.5396 80.8981 75.2878 83.3549 75.2878C85.8153 75.2878 88.1412 74.5397 90.1194 73.1227C91.8977 74.0259 93.0612 75.8801 93.0612 77.8872L93.0619 90.5033H93.0641ZM90.3461 71.1003C90.0247 70.9768 89.6597 71.0302 89.3903 71.2463C87.659 72.6211 85.5725 73.3496 83.3556 73.3496C81.1415 73.3496 79.0537 72.6204 77.3245 71.2463C77.0543 71.0316 76.6908 70.9768 76.3687 71.1003C73.584 72.1839 71.7137 74.9096 71.7137 77.886V91.4711C71.7137 92.0066 72.1475 92.4403 72.6829 92.4403H94.0315C94.5663 92.4403 95 92.0051 95 91.4711V77.8874C95.0014 74.9112 93.1305 72.184 90.3458 71.1005L90.3461 71.1003ZM57.2066 90.5033H37.7964V77.8872C37.7964 75.8801 38.9586 74.0268 40.7369 73.1227C42.7167 74.5396 45.0423 75.2878 47.5006 75.2878C49.9603 75.2878 52.2868 74.5397 54.265 73.1227C56.0433 74.0259 57.2069 75.8801 57.2069 77.8872L57.2066 90.5033ZM54.4885 71.1003C54.1678 70.9768 53.8043 71.0302 53.5341 71.2463C51.8028 72.6211 49.7171 73.3496 47.5009 73.3496C45.2853 73.3496 43.199 72.6204 41.4676 71.2463C41.1981 71.0316 40.8346 70.9768 40.5139 71.1003C37.7292 72.1839 35.8575 74.9096 35.8575 77.886V91.4711C35.8575 92.0066 36.2912 92.4403 36.8267 92.4403H58.1771C58.7119 92.4403 59.1463 92.0051 59.1463 91.4711V77.8874C59.1463 74.9112 57.2746 72.184 54.4892 71.1005L54.4885 71.1003ZM21.349 90.5033H1.93886V77.8872C1.93886 75.8801 3.10102 74.0268 4.87859 73.1227C6.85841 74.5396 9.18478 75.2878 11.643 75.2878C14.1013 75.2878 16.4286 74.5397 18.4075 73.1227C20.1851 74.0259 21.3472 75.8801 21.3472 77.8872L21.3479 90.5033H21.349ZM18.6317 71.1003C18.3103 70.9768 17.9474 71.0302 17.6773 71.2463C15.946 72.6211 13.8595 73.3496 11.644 73.3496C9.42777 73.3496 7.34213 72.6204 5.61078 71.2463C5.34059 71.0316 4.97777 70.9768 4.65635 71.1003C1.87167 72.1839 0 74.9096 0 77.886V91.4711C0 92.0066 0.435112 92.4403 0.970562 92.4403H22.3174C22.8529 92.4403 23.2866 92.0051 23.2866 91.4711V77.8874C23.2873 74.9112 21.4163 72.184 18.6309 71.1005L18.6317 71.1003ZM71.2622 16.384C71.6825 16.384 72.0545 16.1124 72.1857 15.7131L73.4875 11.7073L74.788 15.7131C74.9178 16.1124 75.2897 16.384 75.7115 16.384H79.9243L76.5149 18.8591C76.1753 19.1055 76.0328 19.5434 76.1627 19.9427L77.4652 23.9485L74.0572 21.4734C73.8853 21.352 73.686 21.2888 73.4874 21.2888C73.2874 21.2888 73.0874 21.3506 72.9161 21.4734L69.5082 23.9485L70.8107 19.9427C70.9406 19.5434 70.7974 19.1055 70.4577 18.8591L67.0498 16.384H71.2622ZM63.4956 16.1973L68.747 20.0129L66.742 26.1879C66.6122 26.5872 66.7533 27.023 67.0929 27.2714C67.4333 27.5178 67.8936 27.5178 68.2333 27.2714L73.4861 23.4559L78.7375 27.2714C78.9059 27.3963 79.1067 27.456 79.3074 27.456C79.5074 27.456 79.7067 27.3949 79.8772 27.2714C80.2169 27.023 80.3579 26.5872 80.2281 26.1879L78.2231 20.0129L83.474 16.1973C83.8143 15.951 83.9561 15.5131 83.827 15.1138C83.6971 14.7145 83.3252 14.445 82.9034 14.445H76.4119L74.4047 8.26999C74.2749 7.87066 73.9051 7.60118 73.4847 7.60118C73.0636 7.60118 72.6917 7.87066 72.5611 8.26999L70.5562 14.445H64.0625C63.6435 14.445 63.2716 14.7145 63.141 15.1138C63.0133 15.5131 63.1553 15.951 63.4956 16.1973ZM45.2784 16.384C45.6988 16.384 46.0707 16.1124 46.2005 15.7131L47.501 11.708L48.8035 15.7138C48.9333 16.1131 49.3053 16.3847 49.7256 16.3847H53.9384L50.529 18.8599C50.1894 19.1062 50.0483 19.5441 50.1768 19.9434L51.4793 23.9492L48.0699 21.4741C47.9008 21.3513 47.7008 21.2888 47.5008 21.2888C47.3008 21.2888 47.1014 21.3506 46.9316 21.4734L43.5223 23.9485L44.8248 19.9427C44.9546 19.5434 44.8121 19.1055 44.4725 18.8592L41.0646 16.384L45.2784 16.384ZM37.5118 16.1973L42.7632 20.0129L40.7575 26.1879C40.6277 26.5872 40.7702 27.023 41.1105 27.2714C41.4502 27.5178 41.9098 27.5178 42.2495 27.2714L47.5009 23.4566L52.7537 27.2721C52.9235 27.3971 53.1228 27.4567 53.3228 27.4567C53.5228 27.4567 53.7229 27.3957 53.8927 27.2721C54.2331 27.0237 54.3748 26.5879 54.2457 26.1886L52.24 20.0136L57.4908 16.1981C57.8312 15.9517 57.9736 15.5138 57.8438 15.1145C57.714 14.7152 57.342 14.4457 56.9224 14.4457H50.4287L48.423 8.27071C48.2931 7.87138 47.9212 7.6019 47.5008 7.6019C47.0819 7.6019 46.7099 7.87138 46.5787 8.27071L44.5737 14.4457H38.0815C37.6625 14.4457 37.2891 14.7152 37.1593 15.1145C37.0302 15.5131 37.1719 15.951 37.5116 16.1974L37.5118 16.1973ZM19.2928 16.384C19.7132 16.384 20.0851 16.1124 20.215 15.7131L21.5175 11.7073L22.8193 15.7131C22.9491 16.1124 23.3211 16.384 23.7414 16.384H27.9542L24.5463 18.8591C24.2059 19.1055 24.0642 19.5434 24.1933 19.9427L25.4958 23.9485L22.0879 21.4734C21.9174 21.352 21.7181 21.2888 21.5181 21.2888C21.318 21.2888 21.118 21.3506 20.9482 21.4734L17.5403 23.9485L18.8421 19.9427C18.9719 19.5434 18.8309 19.1055 18.4898 18.8591L15.0819 16.384H19.2928ZM11.5275 16.1973L16.7803 20.0129L14.7746 26.1879C14.6448 26.5872 14.7859 27.023 15.1269 27.2714C15.4673 27.5178 15.9262 27.5178 16.2673 27.2714L21.5187 23.4559L26.7701 27.2714C26.9399 27.3963 27.1399 27.456 27.3399 27.456C27.5399 27.456 27.74 27.3949 27.9098 27.2714C28.2494 27.023 28.3905 26.5872 28.2621 26.1879L26.2564 20.0129L31.5078 16.1973C31.8481 15.951 31.9899 15.5131 31.8607 15.1138C31.7309 14.7145 31.359 14.445 30.9372 14.445H24.4457L22.44 8.26999C22.3101 7.87066 21.9382 7.60118 21.5178 7.60118C21.0975 7.60118 20.7255 7.87066 20.5957 8.26999L18.59 14.445H12.0977C11.6774 14.445 11.3068 14.7145 11.1756 15.1138C11.0458 15.5131 11.1875 15.951 11.5272 16.1973H11.5275ZM6.59952 8.56479V26.4926C6.59952 30.1468 9.57374 33.121 13.2272 33.121H43.097C43.5097 33.121 43.8781 33.3828 44.0142 33.773L47.5007 43.8415L50.9885 33.7737C51.1247 33.3835 51.4917 33.1217 51.9058 33.1217H81.7773C85.4316 33.1217 88.4036 30.1475 88.4036 26.4933V8.56479C88.4036 4.91056 85.4316 1.9385 81.7773 1.9385H13.2274C9.5732 1.9371 6.59952 4.90913 6.59952 8.56479ZM13.2272 35.0606H42.4071L46.5856 47.1201C46.7217 47.5124 47.0874 47.7727 47.5014 47.7727C47.9155 47.7727 48.2832 47.511 48.4173 47.1201L52.5957 35.0606H81.7756C86.4979 35.0606 90.3409 31.2176 90.3409 26.4931V8.56533C90.3409 3.84232 86.4966 0 81.7756 0H13.2257C8.5027 0 4.66038 3.84304 4.66038 8.56533V26.4931C4.66178 31.2176 8.50424 35.0606 13.2272 35.0606Z" fill="url(#paint0_linear_78_1164)"/>
<defs>
<linearGradient id="paint0_linear_78_1164" x1="47.5" y1="0" x2="47.5" y2="92.4403" gradientUnits="userSpaceOnUse">
<stop offset="0.452091" stop-color="#6D95FC"/>
<stop offset="0.64115" stop-color="white"/>
</linearGradient>
</defs>
</svg>
