<svg width="32" height="45" viewBox="0 0 32 45" fill="none" xmlns="http://www.w3.org/2000/svg">
<path d="M16 21.375C14.4845 21.375 13.031 20.7824 11.9594 19.7275C10.8878 18.6726 10.2857 17.2418 10.2857 15.75C10.2857 14.2582 10.8878 12.8274 11.9594 11.7725C13.031 10.7176 14.4845 10.125 16 10.125C17.5155 10.125 18.969 10.7176 20.0406 11.7725C21.1122 12.8274 21.7143 14.2582 21.7143 15.75C21.7143 16.4887 21.5665 17.2201 21.2793 17.9026C20.9921 18.5851 20.5712 19.2051 20.0406 19.7275C19.51 20.2498 18.8801 20.6641 18.1868 20.9468C17.4935 21.2295 16.7504 21.375 16 21.375ZM16 0C11.7565 0 7.68687 1.65937 4.68629 4.61307C1.68571 7.56677 0 11.5728 0 15.75C0 27.5625 16 45 16 45C16 45 32 27.5625 32 15.75C32 11.5728 30.3143 7.56677 27.3137 4.61307C24.3131 1.65937 20.2435 0 16 0Z" fill="#6D95FC"/>
</svg>
