<svg width="90" height="90" viewBox="0 0 90 90" fill="none" xmlns="http://www.w3.org/2000/svg">
<path d="M56.9202 44.8733C56.205 44.158 55.0756 44.158 54.3603 44.8356L41.3726 57.6351L35.1988 51.386C34.4835 50.6708 33.3541 50.6708 32.6389 51.3484C31.9236 52.0636 31.9236 53.193 32.6013 53.9083L41.2973 62.7549L56.8824 47.3956C57.6353 46.7556 57.6353 45.5886 56.92 44.8734L56.9202 44.8733Z" fill="#6D95FC"/>
<path d="M44.8008 0.5H44.8682L45.293 0.516602C47.4136 0.653546 49.4185 1.56469 50.9561 3.13574L50.959 3.13965C52.6356 4.81629 53.5208 6.98323 53.4854 9.25293V9.26074C53.4854 11.3448 52.6162 13.4168 51.0889 15.0566L50.7744 15.3789C49.1274 16.9521 46.954 17.8711 44.8379 17.8711H44.6953C40.0372 17.7999 36.0064 13.658 36.0771 9.04297V9.04199C36.1486 4.3121 40.0636 0.5 44.8008 0.5ZM44.7998 3.15137C41.6574 3.15173 38.948 5.68542 38.707 8.79492L38.6914 9.09766V9.10352C38.6705 10.6903 39.3983 12.2157 40.499 13.3418C41.5987 14.4667 43.1101 15.233 44.7119 15.2559V15.2568C46.262 15.2986 47.7421 14.6277 48.9121 13.498L48.918 13.4922C50.0839 12.3262 50.834 10.7734 50.834 9.22266C50.8339 7.65983 50.2169 6.13986 49.0693 4.99219C47.9328 3.85564 46.4157 3.15137 44.7998 3.15137Z" fill="white" stroke="black"/>
<path d="M57.7217 28.3623L57.707 28.3027C57.6725 28.1646 57.592 28.0397 57.5166 27.9443C57.4323 27.8376 57.3194 27.7245 57.1768 27.6104C56.8903 27.3812 56.4704 27.1385 55.8789 26.9346L55.876 26.9336H55.874C55.8723 26.933 55.8695 26.9318 55.8662 26.9307C55.8595 26.9284 55.8497 26.9252 55.8369 26.9209C55.8105 26.9119 55.7711 26.898 55.7207 26.8809C55.6199 26.8466 55.4736 26.7969 55.292 26.7354C54.9288 26.6123 54.4238 26.4417 53.8564 26.251C52.7224 25.8698 51.3361 25.408 50.335 25.0869L50.0439 24.9932L49.8281 25.209L44.8359 30.2002L39.6289 24.9932L39.3379 25.0869C38.3367 25.4081 36.9505 25.8698 35.8164 26.251C35.2491 26.4417 34.744 26.6123 34.3809 26.7354C34.1993 26.7969 34.0529 26.8466 33.9521 26.8809C33.9018 26.898 33.8624 26.9119 33.8359 26.9209C33.8232 26.9252 33.8133 26.9284 33.8066 26.9307C33.8034 26.9318 33.8005 26.933 33.7988 26.9336L33.7949 26.9346C32.5974 27.3347 32.0335 27.9621 31.9561 28.5039L31.9512 28.5391V35.4258C31.9512 36.1283 31.347 36.7322 30.6445 36.7324C29.9351 36.7324 29.3369 36.1593 29.3369 35.4258V28.6729C29.3054 27.5991 29.9337 25.4736 32.9863 24.4561L32.9883 24.4551H32.9893C32.9899 24.4549 32.9911 24.4545 32.9922 24.4541C32.9947 24.4533 32.9982 24.4518 33.0029 24.4502C33.0131 24.4468 33.0282 24.4412 33.0479 24.4346C33.0873 24.4213 33.1455 24.402 33.2197 24.377C33.3684 24.3268 33.583 24.2549 33.8438 24.167C34.3653 23.9912 35.0742 23.7525 35.8242 23.501C37.3273 22.9968 38.9874 22.4426 39.6406 22.2373L39.6436 22.2363L40.4062 21.9902L44.874 26.458L45.2275 26.1045L49.3408 21.9902L50.1045 22.2363L50.1074 22.2373C50.7605 22.4425 52.4207 22.9968 53.9238 23.501C54.6741 23.7526 55.3837 23.9912 55.9053 24.167C56.1659 24.2548 56.3797 24.3268 56.5283 24.377C56.6024 24.402 56.6608 24.4212 56.7002 24.4346C56.7198 24.4412 56.735 24.4468 56.7451 24.4502L56.7598 24.4551H56.7607L56.7627 24.4561C59.8246 25.4767 60.4741 27.6052 60.4121 28.6582L60.4111 28.6729V35.4258C60.4111 36.1352 59.8379 36.7323 59.1045 36.7324H59.084C58.3897 36.7229 57.8243 36.2163 57.7334 35.5449L57.7217 35.4072V28.3623Z" fill="white" stroke="black"/>
<path d="M15.8867 55.1777C12.6086 55.1777 9.81854 57.8751 9.77734 61.1299C9.75656 62.7166 10.4841 64.2421 11.585 65.3682C12.6861 66.4946 14.2004 67.2624 15.8047 67.2832V67.2822C17.3134 67.3218 18.8285 66.6526 19.998 65.5234L20.0039 65.5176C21.1666 64.3547 21.9158 62.8082 21.9199 61.2617C21.9615 59.6761 21.2923 58.196 20.1611 57.0244L20.1553 57.0176L19.9375 56.8105C18.8299 55.7978 17.4051 55.1777 15.9238 55.1777H15.8867ZM24.5713 61.3242C24.5713 63.5454 23.5844 65.7532 21.8652 67.4385C20.2177 69.0143 18.0418 69.9346 15.9238 69.9346H15.7852C11.1207 69.8278 7.09236 65.7182 7.16309 61.1064V61.1055C7.23453 56.3756 11.1496 52.5635 15.8867 52.5635H15.9541L16.3789 52.5801C18.4996 52.717 20.5044 53.6281 22.042 55.1992L22.0449 55.2031C23.7216 56.8798 24.6077 59.0467 24.5723 61.3164H24.5713V61.3242Z" fill="white" stroke="black"/>
<path d="M28.8857 80.3877L28.8711 80.3281C28.8366 80.19 28.756 80.0651 28.6807 79.9697C28.5963 79.863 28.4835 79.7499 28.3408 79.6357C28.0543 79.4065 27.6345 79.1639 27.043 78.96L27.04 78.959H27.0381C27.0364 78.9584 27.0335 78.9572 27.0303 78.9561C27.0236 78.9538 27.0137 78.9506 27.001 78.9463C26.9745 78.9373 26.9352 78.9234 26.8848 78.9062C26.784 78.872 26.6376 78.8222 26.4561 78.7607C26.0929 78.6377 25.5879 78.4671 25.0205 78.2764C23.8864 77.8952 22.5002 77.4334 21.499 77.1123L21.208 77.0186L20.9922 77.2344L16 82.2256L10.793 77.0186L10.502 77.1123C9.50079 77.4334 8.11455 77.8952 6.98047 78.2764C6.41313 78.4671 5.9081 78.6377 5.54492 78.7607C5.36336 78.8222 5.21698 78.872 5.11621 78.9062C5.06582 78.9234 5.02646 78.9373 5 78.9463C4.98726 78.9506 4.9774 78.9538 4.9707 78.9561C4.96745 78.9572 4.96461 78.9584 4.96289 78.959L4.95898 78.96C3.76142 79.3601 3.19753 79.9874 3.12012 80.5293L3.11523 80.5645V87.4512C3.11523 88.1537 2.5111 88.7576 1.80859 88.7578C1.09915 88.7578 0.500977 88.1847 0.500977 87.4512V80.6982C0.469507 79.6245 1.09778 77.499 4.15039 76.4814L4.15332 76.4805H4.1543C4.15493 76.4803 4.15611 76.4799 4.15723 76.4795C4.15972 76.4786 4.16326 76.4772 4.16797 76.4756C4.17804 76.4722 4.19331 76.4666 4.21289 76.46C4.25205 76.4466 4.31005 76.4274 4.38379 76.4023C4.53142 76.3522 4.74407 76.2793 5.00293 76.1914C5.52092 76.0156 6.22545 75.7769 6.9707 75.5254C8.46461 75.0211 10.1151 74.4678 10.7676 74.2627L10.7705 74.2617L11.5332 74.0156L15.6475 78.1299L16.002 78.4854L16.3555 78.1289L20.4307 74.0166L21.1934 74.2617L21.1963 74.2627C21.8494 74.4679 23.5096 75.0222 25.0127 75.5264C25.7629 75.778 26.4726 76.0166 26.9941 76.1924C27.2547 76.2802 27.4685 76.3522 27.6172 76.4023C27.6913 76.4274 27.7496 76.4466 27.7891 76.46C27.8086 76.4666 27.8238 76.4722 27.834 76.4756L27.8486 76.4805H27.8496L27.8516 76.4814C30.9135 77.5021 31.5629 79.6306 31.501 80.6836L31.5 80.6982V87.4512C31.5 88.1606 30.9268 88.7577 30.1934 88.7578H30.1729C29.4423 88.7478 28.8857 88.1848 28.8857 87.4512V80.3877Z" fill="white" stroke="black"/>
<path d="M73.6367 52.5254H73.7041L74.1289 52.542C76.2496 52.6789 78.2544 53.5901 79.792 55.1611L79.7949 55.165C81.4716 56.8417 82.3567 59.0086 82.3213 61.2783V61.2861C82.3213 63.3701 81.4521 65.4422 79.9248 67.082L79.6104 67.4043C77.9634 68.9775 75.7899 69.8965 73.6738 69.8965H73.5312C68.8732 69.8253 64.8423 65.6834 64.9131 61.0684V61.0674C64.9845 56.3375 68.8996 52.5254 73.6367 52.5254ZM73.6738 55.1768C70.3937 55.1769 67.6059 57.9144 67.5645 61.1289C67.5435 62.7157 68.2722 64.241 69.373 65.3672C70.4726 66.4919 71.9833 67.2582 73.585 67.2812V67.2822C75.0961 67.3242 76.6147 66.6545 77.7861 65.5234L77.792 65.5176C78.9579 64.3515 79.708 62.7988 79.708 61.248C79.7079 59.6802 79.0864 58.2023 77.9482 57.0234H77.9492L77.9424 57.0176L77.7246 56.8096C76.6157 55.7959 75.1887 55.1768 73.6738 55.1768Z" fill="white" stroke="black"/>
<path d="M86.6338 80.3877L86.6191 80.3281C86.5846 80.19 86.5041 80.0651 86.4287 79.9697C86.3444 79.863 86.2315 79.7499 86.0889 79.6357C85.8024 79.4065 85.3825 79.1639 84.791 78.96L84.7881 78.959H84.7861C84.7844 78.9584 84.7816 78.9572 84.7783 78.9561C84.7716 78.9538 84.7618 78.9506 84.749 78.9463C84.7226 78.9373 84.6832 78.9234 84.6328 78.9062C84.532 78.872 84.3857 78.8222 84.2041 78.7607C83.8409 78.6377 83.3359 78.4671 82.7686 78.2764C81.6345 77.8952 80.2482 77.4334 79.2471 77.1123L78.9561 77.0186L78.7402 77.2344L73.748 82.2256L68.541 77.0186L68.25 77.1123C67.2488 77.4334 65.8626 77.8952 64.7285 78.2764C64.1612 78.4671 63.6561 78.6377 63.293 78.7607C63.1114 78.8222 62.965 78.872 62.8643 78.9062C62.8139 78.9234 62.7745 78.9373 62.748 78.9463C62.7353 78.9506 62.7255 78.9538 62.7188 78.9561C62.7155 78.9572 62.7127 78.9584 62.7109 78.959L62.707 78.96C61.5095 79.3601 60.9456 79.9874 60.8682 80.5293L60.8633 80.5645V87.4512C60.8633 88.1537 60.2592 88.7576 59.5566 88.7578C58.8472 88.7578 58.249 88.1847 58.249 87.4512V80.6982C58.2176 79.6245 58.8458 77.499 61.8984 76.4814L61.9014 76.4805H61.9023C61.903 76.4803 61.9042 76.4799 61.9053 76.4795C61.9078 76.4786 61.9113 76.4772 61.916 76.4756C61.9261 76.4722 61.9414 76.4666 61.9609 76.46C62.0001 76.4466 62.0581 76.4274 62.1318 76.4023C62.2795 76.3522 62.4921 76.2793 62.751 76.1914C63.269 76.0156 63.9735 75.7769 64.7188 75.5254C66.2127 75.0211 67.8631 74.4678 68.5156 74.2627L68.5186 74.2617L69.2812 74.0156L73.3955 78.1299L73.75 78.4854L74.1035 78.1289L78.1787 74.0166L78.9414 74.2617L78.9443 74.2627C79.5974 74.4679 81.2576 75.0222 82.7607 75.5264C83.511 75.778 84.2206 76.0166 84.7422 76.1924C85.0028 76.2802 85.2166 76.3522 85.3652 76.4023C85.4394 76.4274 85.4977 76.4466 85.5371 76.46C85.5567 76.4666 85.5719 76.4722 85.582 76.4756L85.5967 76.4805H85.5977L85.5996 76.4814C88.6615 77.5021 89.311 79.6306 89.249 80.6836L89.248 80.6982V87.4512C89.248 88.1606 88.6748 88.7577 87.9414 88.7578H87.9209C87.1904 88.7478 86.6338 88.1848 86.6338 87.4512V80.3877Z" fill="white" stroke="black"/>
<path d="M24.7718 37.1566C25.3741 36.4413 26.0141 35.726 26.6917 35.0861C26.9928 34.8226 26.9928 34.3332 26.7293 34.0697C26.4658 33.7685 25.9764 33.7685 25.7129 34.032C24.9976 34.7097 24.32 35.4626 23.6801 36.2156C23.4166 36.5167 23.4543 36.9685 23.7554 37.232C23.906 37.3449 24.0566 37.3826 24.2072 37.3826C24.433 37.4202 24.6212 37.3448 24.7718 37.1566Z" fill="#6D95FC"/>
<path d="M18.2972 50.4841C18.636 50.4841 18.9748 50.2206 19.0125 49.8818C19.163 48.9406 19.3513 48.0371 19.6148 47.1336C19.7277 46.7572 19.5018 46.3431 19.0877 46.2301C18.7113 46.1172 18.2972 46.3431 18.1843 46.7572C17.9207 47.6983 17.7325 48.677 17.5819 49.6934C17.5066 50.1075 17.8078 50.4463 18.1843 50.5216C18.2219 50.484 18.2596 50.4841 18.2972 50.4841Z" fill="#6D95FC"/>
<path d="M20.3676 43.5565C20.6311 43.5565 20.8946 43.4059 21.0452 43.1424C21.4217 42.2766 21.8734 41.4484 22.3628 40.6202C22.551 40.2814 22.4381 39.8297 22.0993 39.6415C21.7605 39.4532 21.3087 39.5662 21.1205 39.905C20.6311 40.7708 20.1417 41.6366 19.7276 42.5401C19.577 42.9165 19.7276 43.3306 20.1041 43.5188C20.1794 43.5188 20.2547 43.5565 20.3676 43.5565Z" fill="#6D95FC"/>
<path d="M55.3402 77.2676L55.0767 77.3805C54.7003 77.5311 54.5497 77.9828 54.7003 78.3216C54.8132 78.5851 55.0767 78.7734 55.3779 78.7734C55.4908 78.7734 55.5661 78.7357 55.6791 78.6981L55.9802 78.5852C56.3567 78.4346 56.5073 77.9828 56.3567 77.6064C56.1308 77.2299 55.7167 77.0793 55.3402 77.2676Z" fill="#6D95FC"/>
<path d="M34.4481 77.3809C34.0716 77.2304 33.6575 77.3809 33.5069 77.7574C33.3563 78.1339 33.5069 78.548 33.8834 78.6985C34.7869 79.075 35.728 79.4515 36.6692 79.715C36.7445 79.7526 36.8198 79.7526 36.8951 79.7526C37.1963 79.7526 37.4974 79.5644 37.5727 79.2256C37.6857 78.8491 37.4598 78.435 37.0833 78.3221C36.2175 78.0586 35.3139 77.7574 34.4481 77.3809Z" fill="#6D95FC"/>
<path d="M51.0485 78.7358C50.145 78.9617 49.2039 79.1499 48.2627 79.2628C47.8486 79.3005 47.5851 79.6769 47.6227 80.091C47.6604 80.4675 47.9992 80.731 48.338 80.731H48.4509C49.4297 80.5804 50.4085 80.3922 51.3872 80.1663C51.7636 80.0534 52.0271 79.6769 51.9142 79.3005C51.8389 78.8487 51.4248 78.6229 51.0483 78.7358L51.0485 78.7358Z" fill="#6D95FC"/>
<path d="M41.2224 79.2643C40.8083 79.2267 40.4695 79.4902 40.3942 79.9043C40.3565 80.3184 40.6201 80.6572 41.0342 80.7325C42.013 80.8454 42.9917 80.9584 44.0081 80.9584H44.0458C44.4222 80.9584 44.761 80.6572 44.761 80.2431C44.761 79.829 44.4599 79.4902 44.0458 79.4902C43.1046 79.4526 42.1634 79.3772 41.2224 79.2643Z" fill="#6D95FC"/>
<path d="M68.5537 43.2557C68.6666 43.5192 68.9301 43.6698 69.2313 43.6698C69.3442 43.6698 69.4195 43.6321 69.5325 43.5945C69.9089 43.4439 70.0595 42.9922 69.9089 42.6533C69.4948 41.7499 69.0431 40.8464 68.5537 40.0183C68.3654 39.6794 67.9137 39.5665 67.5749 39.7547C67.2361 39.943 67.1231 40.3947 67.3114 40.7335C67.7631 41.5617 68.1772 42.3899 68.5537 43.2557Z" fill="#6D95FC"/>
<path d="M71.226 50.051H71.3389C71.753 49.9757 72.0166 49.5993 71.9413 49.2228C71.7907 48.2817 71.6024 47.3405 71.3766 46.437C71.2637 46.0605 70.8872 45.8346 70.4731 45.9099C70.0966 46.0229 69.8708 46.3993 69.9461 46.8134C70.1719 47.6793 70.3602 48.545 70.5107 49.4485C70.586 49.7873 70.8872 50.0508 71.226 50.0508L71.226 50.051Z" fill="#6D95FC"/>
<path d="M63.9621 34.1449C63.6609 33.8814 63.2092 33.8814 62.9457 34.1449C62.6822 34.4461 62.6822 34.8978 62.9457 35.1613C63.6233 35.8013 64.2633 36.5165 64.8655 37.2318C65.0161 37.42 65.2044 37.4953 65.4302 37.4953C65.5808 37.4953 65.769 37.4576 65.882 37.3447C66.1831 37.0812 66.2208 36.6294 65.9949 36.3283C65.3549 35.5754 64.6773 34.8603 63.9621 34.1449Z" fill="#6D95FC"/>
</svg>
