<svg width="43" height="33" viewBox="0 0 43 33" fill="none" xmlns="http://www.w3.org/2000/svg">
<path d="M20.4998 10.7351C20.4998 17.1141 17.2743 28.1141 8.55423 32.4091C7.73531 32.8123 7.22298 31.7794 7.90482 31.1648C13.8591 25.798 15.8683 20.2385 10.5 20.9703C4.97723 20.9703 0.5 16.3875 0.5 10.7351C0.5 5.08281 4.97723 0.5 10.5 0.5C16.0228 0.5 20.5 5.08281 20.5 10.7351H20.4998Z" fill="#6D95FC" stroke="#151515"/>
<path d="M42.4998 10.7351C42.4998 17.1141 39.2743 28.1141 30.5542 32.4091C29.7353 32.8123 29.223 31.7794 29.9048 31.1648C35.8591 25.798 37.8683 20.2385 32.5 20.9703C26.9772 20.9703 22.5 16.3875 22.5 10.7351C22.5 5.08281 26.9772 0.5 32.5 0.5C38.0228 0.5 42.4998 5.08281 42.4998 10.7351Z" fill="#6D95FC" stroke="#151515"/>
</svg>
