<svg width="90" height="94" viewBox="0 0 90 94" fill="none" xmlns="http://www.w3.org/2000/svg">
<path d="M27.5811 64.1777C32.8864 64.1777 37.2422 68.6957 37.2422 74.291C37.242 79.8861 32.8863 84.4033 27.5811 84.4033C22.2759 84.4032 17.9201 79.8861 17.9199 74.291C17.9199 68.6958 22.2758 64.1778 27.5811 64.1777ZM27.5811 66.21C23.2824 66.21 19.8232 69.8555 19.8232 74.291C19.8234 78.7264 23.2825 82.371 27.5811 82.3711C31.8796 82.3711 35.3387 78.7265 35.3389 74.291C35.3389 69.8554 31.8798 66.21 27.5811 66.21Z" fill="#6D95FC" stroke="black"/>
<path d="M27.5811 70.2422C29.6857 70.2422 31.4365 72.0387 31.4365 74.291C31.4363 76.5431 29.6856 78.3389 27.5811 78.3389C25.4767 78.3387 23.7268 76.543 23.7266 74.291C23.7266 72.0388 25.4766 70.2424 27.5811 70.2422ZM27.5811 72.2744C26.4838 72.2746 25.6299 73.1991 25.6299 74.291C25.6301 75.3827 26.484 76.3064 27.5811 76.3066C28.6783 76.3066 29.533 75.3828 29.5332 74.291C29.5332 73.199 28.6784 72.2744 27.5811 72.2744Z" fill="#6D95FC" stroke="black"/>
<mask id="path-3-inside-1_76_651" fill="white">
<path d="M87.6995 70.8214L77.1999 66.7097H75.4838V54.0501C78.8614 52.7979 81.2903 49.4367 81.2903 45.4839V43.1643C81.2903 41.3342 82.1075 39.5952 83.5319 38.3911C87.6424 34.9162 90 29.7662 90 24.2581C90 19.0883 87.8821 14.144 84.189 10.6949C81.7284 8.39502 78.6995 6.92152 75.4838 6.34955V4.54839C75.4838 2.04062 73.5301 0 71.129 0H4.35484C1.95379 0 0 2.04062 0 4.54839V71.258C0 73.7658 1.95379 75.8064 4.35484 75.8064H8.77056C9.03756 77.5012 10.18 78.9253 11.7813 79.4742C12.2213 79.6259 12.5622 79.9534 12.7203 80.3792C12.7955 80.5795 12.8713 80.7765 12.9543 80.9721C13.1253 81.3843 13.1052 81.8683 12.8992 82.296C12.0269 84.0972 12.3594 86.265 13.7254 87.6952L14.7487 88.7653C16.1148 90.1907 18.1904 90.5378 19.9161 89.6262C20.3257 89.411 20.7897 89.39 21.1863 89.57C21.3722 89.6546 21.5608 89.7338 21.7539 89.8123C22.159 89.9775 22.4739 90.3355 22.6191 90.7931C23.2198 92.7112 24.9242 94 26.8573 94H28.303C30.2368 94 31.9405 92.7099 32.5433 90.7931C32.6884 90.3335 33.0021 89.9775 33.4097 89.8123C33.6015 89.7338 33.7901 89.6546 33.9774 89.568C34.374 89.3907 34.8341 89.4103 35.2449 89.6255C36.9695 90.5352 39.047 90.188 40.4143 88.7625L41.4389 87.6938C42.8037 86.2656 43.136 84.0956 42.2632 82.2967C42.1978 82.16 42.1835 82.0145 42.1556 81.8723H77.2001L87.6996 77.7592C89.0748 77.2177 89.9995 75.8248 89.9995 74.2903C89.9995 72.7558 89.0747 71.3629 87.6989 70.8214L87.6995 70.8214ZM46.3907 72.7742C46.1963 71.5416 45.5372 70.456 44.5761 69.7419H75.483V72.7742H46.3907ZM46.3907 75.8064H75.4843V78.8387H44.5774C45.5398 78.1246 46.1988 77.0389 46.392 75.8064H46.3907ZM72.5811 51.5484C69.3791 51.5484 66.7747 48.8282 66.7747 45.4839H78.3876C78.3876 48.8282 75.7831 51.5484 72.5811 51.5484ZM71.6155 28.8064H73.5461L72.6738 42.4516H72.4866L71.6155 28.8064ZM87.0972 24.2581C87.0972 28.8458 85.1316 33.1382 81.7062 36.0338C79.7809 37.6609 78.617 39.9697 78.4263 42.4516H75.584L76.455 28.8064H78.3874C80.7884 28.8064 82.7422 26.7658 82.7422 24.2581C82.7422 21.7503 80.7884 19.7097 78.3874 19.7097H78.2001C75.9151 19.7097 74.0047 21.5744 73.8555 23.9562L73.7395 25.7742H71.4227L71.3067 23.9576C71.157 21.5744 69.2466 19.7097 66.9617 19.7097H66.7744C64.3734 19.7097 62.4196 21.7503 62.4196 24.2581C62.4196 26.7658 64.3734 28.8064 66.7744 28.8064H68.7063L69.5773 42.4516H66.7336C66.5379 39.9804 65.352 37.6528 63.3936 35.979C59.3699 32.5406 57.4433 27.2525 58.2449 21.835C59.2176 15.2521 64.5406 9.9361 70.9045 9.19502C71.4721 9.12869 72.0392 9.09687 72.6011 9.09687C76.1809 9.09687 79.5586 10.4357 82.2544 12.9543C85.332 15.8288 87.0972 19.9493 87.0972 24.2581ZM76.6501 25.7742L76.7531 24.1565C76.8023 23.3633 77.4394 22.7419 78.2002 22.7419H78.3875C79.1884 22.7419 79.8391 23.4215 79.8391 24.2581C79.8391 25.0946 79.1884 25.7742 78.3875 25.7742H76.6501ZM68.5119 25.7742H66.7745C65.9735 25.7742 65.3228 25.0946 65.3228 24.2581C65.3228 23.4215 65.9735 22.7419 66.7745 22.7419H66.9617C67.7225 22.7419 68.3596 23.3633 68.4088 24.1579L68.5119 25.7742ZM37.7427 24.2581H33.3879C31.9013 24.2581 30.5877 25.0432 29.8023 26.2337C28.5775 25.0174 26.9308 24.2581 25.1123 24.2581H24.7158C23.4793 24.2581 22.2654 24.608 21.204 25.274L14.5168 29.4644V32.5677L20.8475 37.856C22.0522 38.8645 23.5674 39.4195 25.1122 39.4195C26.9313 39.4195 28.5774 38.66 29.8022 37.4438C30.5876 38.6344 31.9011 39.4195 33.3878 39.4195H37.7426V42.4517H8.71035V21.2259H37.7426L37.7427 24.2581ZM25.1123 36.3871C24.2252 36.3871 23.3542 36.069 22.662 35.4882L17.4679 31.1504L22.6964 27.8738C23.3075 27.4921 24.0048 27.2904 24.7144 27.2904H25.111C27.2734 27.2904 29.033 29.1279 29.033 31.3853V32.2923C29.033 34.5495 27.2737 36.3871 25.1123 36.3871ZM33.3879 36.3871C32.5869 36.3871 31.9363 35.7075 31.9363 34.871V28.8064C31.9363 27.9699 32.5869 27.2903 33.3879 27.2903H55.4391C55.9809 30.6698 57.4072 33.8111 59.6325 36.3871H33.3879ZM4.35562 3.03226H71.1298C71.9308 3.03226 72.5814 3.71181 72.5814 4.54839V6.07534C71.9165 6.07399 71.249 6.10445 70.5808 6.18161C66.3134 6.67841 62.4362 8.89366 59.64 12.129H37.743V6.06448H29.0334V12.129H26.1301V6.06448H17.4205V12.129H14.5172V6.06448H5.80756V12.129H2.90434V4.54835C2.90434 3.71177 3.55497 3.03222 4.35595 3.03222L4.35562 3.03226ZM34.8395 12.129H31.9363V9.09677H34.8395V12.129ZM23.2266 12.129H20.3234V9.09677H23.2266V12.129ZM11.6137 12.129H8.71045V9.09677H11.6137V12.129ZM2.904 71.258V15.1613H57.5228C56.4574 17.0565 55.7057 19.15 55.3771 21.3746C55.2332 22.3432 55.1872 23.3051 55.1872 24.2581H40.6465V18.1935H5.80781V45.4839H40.6465V39.4193H62.5783C63.4084 40.5199 63.8731 41.8282 63.8731 43.1731V45.4839C63.8731 50.5006 67.7795 54.5806 72.5828 54.5806V66.7097H42.157C42.1848 66.5668 42.1991 66.4213 42.2645 66.2866C43.1368 64.4855 42.8044 62.3177 41.4383 60.8875L40.415 59.8187C39.0502 58.3906 36.972 58.0399 35.2476 58.9558C34.84 59.1723 34.3753 59.194 33.9775 59.0119C33.7915 58.9273 33.6029 58.8481 33.4098 58.7696C33.0047 58.6045 32.6898 58.2464 32.5446 57.7889C31.9433 55.8694 30.239 54.5806 28.3058 54.5806H26.86C24.9263 54.5806 23.2225 55.8706 22.6198 57.7875C22.4746 58.2471 22.161 58.6031 21.7534 58.7682C21.5615 58.8468 21.3729 58.926 21.1857 59.0126C20.7891 59.1899 20.329 59.1703 19.9181 58.9551C18.1936 58.0454 16.116 58.3926 14.7487 59.818L13.7241 60.8868C12.3594 62.3149 12.027 64.4849 12.8998 66.2839C13.1072 66.713 13.126 67.1962 12.9536 67.6105C12.8726 67.8047 12.7968 68.0017 12.7216 68.2034C12.5635 68.6264 12.2207 68.9553 11.7826 69.107C10.1807 69.6552 9.03815 71.0793 8.77238 72.7741H4.35665C3.55568 72.7741 2.90504 72.0945 2.90504 71.2579L2.904 71.258ZM39.7368 79.2765C39.6759 79.4403 39.6104 79.6028 39.545 79.7618C39.0285 81.0039 39.0745 82.4259 39.6714 83.6611C39.9759 84.2906 39.8599 85.0487 39.3836 85.5476L38.3604 86.615C37.8828 87.1138 37.1582 87.2349 36.5529 86.9168C35.3728 86.2934 34.01 86.2454 32.8222 86.7835C32.6686 86.8532 32.5131 86.9216 32.3575 86.9852C31.1399 87.4793 30.2035 88.5243 29.7868 89.8476C29.5755 90.5177 28.9799 90.9678 28.304 90.9678H26.8583C26.1817 90.9678 25.5868 90.5177 25.3762 89.8456C24.9595 88.5237 24.0218 87.4808 22.8054 86.9859C22.6486 86.9223 22.4931 86.8539 22.3408 86.7856C21.7919 86.5372 21.2074 86.4127 20.6189 86.4127C19.932 86.4127 19.2444 86.5812 18.6054 86.9176C18.0027 87.2357 17.2769 87.1145 16.7993 86.6171L15.7773 85.5483C15.2997 85.0495 15.1837 84.2914 15.4883 83.6605C16.0851 82.4266 16.1311 81.0046 15.6159 79.764C15.5492 79.6036 15.4837 79.4411 15.4228 79.2787C14.9497 78.0069 13.9492 77.0289 12.6822 76.5937C12.0438 76.3737 11.6129 75.7517 11.6129 75.0457V73.5357C11.6129 72.8291 12.0439 72.2077 12.6874 71.9878C13.953 71.5525 14.9515 70.5731 15.4254 69.3027C15.4863 69.1389 15.5517 68.9765 15.6172 68.8174C16.1337 67.5754 16.0876 66.1534 15.4908 64.9181C15.1862 64.2887 15.3022 63.5306 15.7785 63.0317L16.8018 61.963C17.2794 61.4655 18.0052 61.3457 18.6093 61.6624C19.7906 62.2858 21.1555 62.3359 22.34 61.7958C22.4936 61.7261 22.6491 61.6577 22.8046 61.5941C24.0223 61.1 24.9587 60.0549 25.3754 58.7316C25.586 58.0629 26.1816 57.6128 26.8575 57.6128H28.3032C28.9798 57.6128 29.5747 58.0629 29.7853 58.735C30.202 60.0569 31.1397 61.0998 32.3561 61.5947C32.5129 61.6583 32.6684 61.7267 32.8207 61.795C34.0112 62.3345 35.3714 62.2864 36.5541 61.6631C37.1594 61.3429 37.8839 61.4674 38.3602 61.9636L39.3822 63.0323C39.8598 63.5312 39.9758 64.2892 39.6712 64.9201C39.0744 66.154 39.0284 67.576 39.5436 68.8167C39.6103 68.9771 39.6758 69.1395 39.7367 69.302C40.2098 70.5737 41.2103 71.5517 42.4773 71.987C43.1176 72.2069 43.5486 72.829 43.5486 73.5349V75.0449C43.5486 75.7516 43.1176 76.3729 42.4741 76.5929C41.2085 77.0281 40.2099 78.0061 39.7368 79.2765ZM86.6795 74.9196L78.3878 78.1671V70.4139L86.6795 73.6599C86.929 73.7581 87.0974 74.0112 87.0974 74.2901C87.0974 74.5689 86.929 74.8222 86.6795 74.9196Z"/>
</mask>
<path d="M87.6995 70.8214L77.1999 66.7097H75.4838V54.0501C78.8614 52.7979 81.2903 49.4367 81.2903 45.4839V43.1643C81.2903 41.3342 82.1075 39.5952 83.5319 38.3911C87.6424 34.9162 90 29.7662 90 24.2581C90 19.0883 87.8821 14.144 84.189 10.6949C81.7284 8.39502 78.6995 6.92152 75.4838 6.34955V4.54839C75.4838 2.04062 73.5301 0 71.129 0H4.35484C1.95379 0 0 2.04062 0 4.54839V71.258C0 73.7658 1.95379 75.8064 4.35484 75.8064H8.77056C9.03756 77.5012 10.18 78.9253 11.7813 79.4742C12.2213 79.6259 12.5622 79.9534 12.7203 80.3792C12.7955 80.5795 12.8713 80.7765 12.9543 80.9721C13.1253 81.3843 13.1052 81.8683 12.8992 82.296C12.0269 84.0972 12.3594 86.265 13.7254 87.6952L14.7487 88.7653C16.1148 90.1907 18.1904 90.5378 19.9161 89.6262C20.3257 89.411 20.7897 89.39 21.1863 89.57C21.3722 89.6546 21.5608 89.7338 21.7539 89.8123C22.159 89.9775 22.4739 90.3355 22.6191 90.7931C23.2198 92.7112 24.9242 94 26.8573 94H28.303C30.2368 94 31.9405 92.7099 32.5433 90.7931C32.6884 90.3335 33.0021 89.9775 33.4097 89.8123C33.6015 89.7338 33.7901 89.6546 33.9774 89.568C34.374 89.3907 34.8341 89.4103 35.2449 89.6255C36.9695 90.5352 39.047 90.188 40.4143 88.7625L41.4389 87.6938C42.8037 86.2656 43.136 84.0956 42.2632 82.2967C42.1978 82.16 42.1835 82.0145 42.1556 81.8723H77.2001L87.6996 77.7592C89.0748 77.2177 89.9995 75.8248 89.9995 74.2903C89.9995 72.7558 89.0747 71.3629 87.6989 70.8214L87.6995 70.8214ZM46.3907 72.7742C46.1963 71.5416 45.5372 70.456 44.5761 69.7419H75.483V72.7742H46.3907ZM46.3907 75.8064H75.4843V78.8387H44.5774C45.5398 78.1246 46.1988 77.0389 46.392 75.8064H46.3907ZM72.5811 51.5484C69.3791 51.5484 66.7747 48.8282 66.7747 45.4839H78.3876C78.3876 48.8282 75.7831 51.5484 72.5811 51.5484ZM71.6155 28.8064H73.5461L72.6738 42.4516H72.4866L71.6155 28.8064ZM87.0972 24.2581C87.0972 28.8458 85.1316 33.1382 81.7062 36.0338C79.7809 37.6609 78.617 39.9697 78.4263 42.4516H75.584L76.455 28.8064H78.3874C80.7884 28.8064 82.7422 26.7658 82.7422 24.2581C82.7422 21.7503 80.7884 19.7097 78.3874 19.7097H78.2001C75.9151 19.7097 74.0047 21.5744 73.8555 23.9562L73.7395 25.7742H71.4227L71.3067 23.9576C71.157 21.5744 69.2466 19.7097 66.9617 19.7097H66.7744C64.3734 19.7097 62.4196 21.7503 62.4196 24.2581C62.4196 26.7658 64.3734 28.8064 66.7744 28.8064H68.7063L69.5773 42.4516H66.7336C66.5379 39.9804 65.352 37.6528 63.3936 35.979C59.3699 32.5406 57.4433 27.2525 58.2449 21.835C59.2176 15.2521 64.5406 9.9361 70.9045 9.19502C71.4721 9.12869 72.0392 9.09687 72.6011 9.09687C76.1809 9.09687 79.5586 10.4357 82.2544 12.9543C85.332 15.8288 87.0972 19.9493 87.0972 24.2581ZM76.6501 25.7742L76.7531 24.1565C76.8023 23.3633 77.4394 22.7419 78.2002 22.7419H78.3875C79.1884 22.7419 79.8391 23.4215 79.8391 24.2581C79.8391 25.0946 79.1884 25.7742 78.3875 25.7742H76.6501ZM68.5119 25.7742H66.7745C65.9735 25.7742 65.3228 25.0946 65.3228 24.2581C65.3228 23.4215 65.9735 22.7419 66.7745 22.7419H66.9617C67.7225 22.7419 68.3596 23.3633 68.4088 24.1579L68.5119 25.7742ZM37.7427 24.2581H33.3879C31.9013 24.2581 30.5877 25.0432 29.8023 26.2337C28.5775 25.0174 26.9308 24.2581 25.1123 24.2581H24.7158C23.4793 24.2581 22.2654 24.608 21.204 25.274L14.5168 29.4644V32.5677L20.8475 37.856C22.0522 38.8645 23.5674 39.4195 25.1122 39.4195C26.9313 39.4195 28.5774 38.66 29.8022 37.4438C30.5876 38.6344 31.9011 39.4195 33.3878 39.4195H37.7426V42.4517H8.71035V21.2259H37.7426L37.7427 24.2581ZM25.1123 36.3871C24.2252 36.3871 23.3542 36.069 22.662 35.4882L17.4679 31.1504L22.6964 27.8738C23.3075 27.4921 24.0048 27.2904 24.7144 27.2904H25.111C27.2734 27.2904 29.033 29.1279 29.033 31.3853V32.2923C29.033 34.5495 27.2737 36.3871 25.1123 36.3871ZM33.3879 36.3871C32.5869 36.3871 31.9363 35.7075 31.9363 34.871V28.8064C31.9363 27.9699 32.5869 27.2903 33.3879 27.2903H55.4391C55.9809 30.6698 57.4072 33.8111 59.6325 36.3871H33.3879ZM4.35562 3.03226H71.1298C71.9308 3.03226 72.5814 3.71181 72.5814 4.54839V6.07534C71.9165 6.07399 71.249 6.10445 70.5808 6.18161C66.3134 6.67841 62.4362 8.89366 59.64 12.129H37.743V6.06448H29.0334V12.129H26.1301V6.06448H17.4205V12.129H14.5172V6.06448H5.80756V12.129H2.90434V4.54835C2.90434 3.71177 3.55497 3.03222 4.35595 3.03222L4.35562 3.03226ZM34.8395 12.129H31.9363V9.09677H34.8395V12.129ZM23.2266 12.129H20.3234V9.09677H23.2266V12.129ZM11.6137 12.129H8.71045V9.09677H11.6137V12.129ZM2.904 71.258V15.1613H57.5228C56.4574 17.0565 55.7057 19.15 55.3771 21.3746C55.2332 22.3432 55.1872 23.3051 55.1872 24.2581H40.6465V18.1935H5.80781V45.4839H40.6465V39.4193H62.5783C63.4084 40.5199 63.8731 41.8282 63.8731 43.1731V45.4839C63.8731 50.5006 67.7795 54.5806 72.5828 54.5806V66.7097H42.157C42.1848 66.5668 42.1991 66.4213 42.2645 66.2866C43.1368 64.4855 42.8044 62.3177 41.4383 60.8875L40.415 59.8187C39.0502 58.3906 36.972 58.0399 35.2476 58.9558C34.84 59.1723 34.3753 59.194 33.9775 59.0119C33.7915 58.9273 33.6029 58.8481 33.4098 58.7696C33.0047 58.6045 32.6898 58.2464 32.5446 57.7889C31.9433 55.8694 30.239 54.5806 28.3058 54.5806H26.86C24.9263 54.5806 23.2225 55.8706 22.6198 57.7875C22.4746 58.2471 22.161 58.6031 21.7534 58.7682C21.5615 58.8468 21.3729 58.926 21.1857 59.0126C20.7891 59.1899 20.329 59.1703 19.9181 58.9551C18.1936 58.0454 16.116 58.3926 14.7487 59.818L13.7241 60.8868C12.3594 62.3149 12.027 64.4849 12.8998 66.2839C13.1072 66.713 13.126 67.1962 12.9536 67.6105C12.8726 67.8047 12.7968 68.0017 12.7216 68.2034C12.5635 68.6264 12.2207 68.9553 11.7826 69.107C10.1807 69.6552 9.03815 71.0793 8.77238 72.7741H4.35665C3.55568 72.7741 2.90504 72.0945 2.90504 71.2579L2.904 71.258ZM39.7368 79.2765C39.6759 79.4403 39.6104 79.6028 39.545 79.7618C39.0285 81.0039 39.0745 82.4259 39.6714 83.6611C39.9759 84.2906 39.8599 85.0487 39.3836 85.5476L38.3604 86.615C37.8828 87.1138 37.1582 87.2349 36.5529 86.9168C35.3728 86.2934 34.01 86.2454 32.8222 86.7835C32.6686 86.8532 32.5131 86.9216 32.3575 86.9852C31.1399 87.4793 30.2035 88.5243 29.7868 89.8476C29.5755 90.5177 28.9799 90.9678 28.304 90.9678H26.8583C26.1817 90.9678 25.5868 90.5177 25.3762 89.8456C24.9595 88.5237 24.0218 87.4808 22.8054 86.9859C22.6486 86.9223 22.4931 86.8539 22.3408 86.7856C21.7919 86.5372 21.2074 86.4127 20.6189 86.4127C19.932 86.4127 19.2444 86.5812 18.6054 86.9176C18.0027 87.2357 17.2769 87.1145 16.7993 86.6171L15.7773 85.5483C15.2997 85.0495 15.1837 84.2914 15.4883 83.6605C16.0851 82.4266 16.1311 81.0046 15.6159 79.764C15.5492 79.6036 15.4837 79.4411 15.4228 79.2787C14.9497 78.0069 13.9492 77.0289 12.6822 76.5937C12.0438 76.3737 11.6129 75.7517 11.6129 75.0457V73.5357C11.6129 72.8291 12.0439 72.2077 12.6874 71.9878C13.953 71.5525 14.9515 70.5731 15.4254 69.3027C15.4863 69.1389 15.5517 68.9765 15.6172 68.8174C16.1337 67.5754 16.0876 66.1534 15.4908 64.9181C15.1862 64.2887 15.3022 63.5306 15.7785 63.0317L16.8018 61.963C17.2794 61.4655 18.0052 61.3457 18.6093 61.6624C19.7906 62.2858 21.1555 62.3359 22.34 61.7958C22.4936 61.7261 22.6491 61.6577 22.8046 61.5941C24.0223 61.1 24.9587 60.0549 25.3754 58.7316C25.586 58.0629 26.1816 57.6128 26.8575 57.6128H28.3032C28.9798 57.6128 29.5747 58.0629 29.7853 58.735C30.202 60.0569 31.1397 61.0998 32.3561 61.5947C32.5129 61.6583 32.6684 61.7267 32.8207 61.795C34.0112 62.3345 35.3714 62.2864 36.5541 61.6631C37.1594 61.3429 37.8839 61.4674 38.3602 61.9636L39.3822 63.0323C39.8598 63.5312 39.9758 64.2892 39.6712 64.9201C39.0744 66.154 39.0284 67.576 39.5436 68.8167C39.6103 68.9771 39.6758 69.1395 39.7367 69.302C40.2098 70.5737 41.2103 71.5517 42.4773 71.987C43.1176 72.2069 43.5486 72.829 43.5486 73.5349V75.0449C43.5486 75.7516 43.1176 76.3729 42.4741 76.5929C41.2085 77.0281 40.2099 78.0061 39.7368 79.2765ZM86.6795 74.9196L78.3878 78.1671V70.4139L86.6795 73.6599C86.929 73.7581 87.0974 74.0112 87.0974 74.2901C87.0974 74.5689 86.929 74.8222 86.6795 74.9196Z" fill="white" stroke="black" stroke-width="2" mask="url(#path-3-inside-1_76_651)"/>
<path d="M60.4678 42.9512V44.9834H44.0488V42.9512H60.4678Z" fill="#6D95FC" stroke="black"/>
<path d="M60.4678 49.0166V51.0488H44.0488V49.0166H60.4678Z" fill="#6D95FC" stroke="black"/>
<path d="M60.4678 55.0811V57.1133H44.0488V55.0811H60.4678Z" fill="#6D95FC" stroke="black"/>
<path d="M54.6611 61.1455V63.1777H52.7578V61.1455H54.6611Z" fill="#6D95FC" stroke="black"/>
<path d="M60.4678 61.1455V63.1777H58.5645V61.1455H60.4678Z" fill="#6D95FC" stroke="black"/>
<path d="M48.8545 61.1455V63.1777H46.9512V61.1455H48.8545Z" fill="#6D95FC" stroke="black"/>
</svg>
