<svg width="100" height="96" viewBox="0 0 100 96" fill="none" xmlns="http://www.w3.org/2000/svg">
<path d="M46.5684 21.7295C47.3525 21.296 48.2893 21.2959 49.0732 21.7295L52.709 23.7402C53.4932 24.174 53.9619 24.9517 53.9619 25.8203C53.9619 26.6889 53.4932 27.4666 52.709 27.9004L49.0732 29.9111C48.6813 30.128 48.2506 30.2363 47.8203 30.2363C47.3902 30.2363 46.9602 30.128 46.5684 29.9111C45.784 29.4774 45.3145 28.6996 45.3145 27.8311V23.8096C45.3146 22.9412 45.7841 22.1632 46.5684 21.7295ZM47.8213 23.4775C47.7471 23.4776 47.686 23.5031 47.6475 23.5244C47.582 23.5606 47.4756 23.6454 47.4756 23.8105V27.8311C47.4756 27.9965 47.582 28.0813 47.6475 28.1172C47.713 28.1533 47.844 28.2004 47.9941 28.1172L51.6299 26.1064C51.7799 26.0235 51.8017 25.8927 51.8018 25.8213C51.8018 25.75 51.7802 25.6182 51.6299 25.5352L47.9941 23.5244C47.9318 23.4896 47.8729 23.4775 47.8213 23.4775Z" fill="#6D95FC" stroke="white" stroke-width="0.05"/>
<path d="M49.6387 15.5977C55.5218 15.5977 60.3105 20.1831 60.3105 25.8213C60.3105 31.4595 55.5218 36.0449 49.6387 36.0449C43.7554 36.0448 38.9668 31.4594 38.9668 25.8213C38.9669 20.1832 43.7554 15.5977 49.6387 15.5977ZM49.6387 17.6689C44.9445 17.669 41.127 21.3273 41.127 25.8213C41.127 30.3153 44.9445 33.9736 49.6387 33.9736C54.3329 33.9736 58.1504 30.3153 58.1504 25.8213C58.1503 21.3273 54.3329 17.6689 49.6387 17.6689Z" fill="#6D95FC" stroke="white" stroke-width="0.05"/>
<path d="M82.3457 0.0244141C82.9413 0.0244141 83.4258 0.487666 83.4258 1.06055V50.582C83.4256 51.155 82.9412 51.6172 82.3457 51.6172H16.9316C16.3365 51.617 15.8517 51.1549 15.8516 50.582V1.06055C15.8516 0.487783 16.3364 0.024608 16.9316 0.0244141H82.3457ZM18.0117 49.5459H81.2656V2.0957H18.0117V49.5459Z" fill="#6D95FC" stroke="white" stroke-width="0.05"/>
<path d="M31.7021 6.08789C32.2975 6.08789 32.7822 6.55114 32.7822 7.12402V12.1768C32.7822 12.7496 32.2975 13.2129 31.7021 13.2129H23.2617C22.6665 13.2127 22.1816 12.7495 22.1816 12.1768V7.12402C22.1816 6.55126 22.6665 6.08808 23.2617 6.08789H31.7021ZM24.3418 11.1416H30.6221V8.15918H24.3418V11.1416Z" fill="#6D95FC" stroke="white" stroke-width="0.05"/>
<path d="M46.4736 6.08789C47.069 6.08789 47.5537 6.55114 47.5537 7.12402V12.1768C47.5537 12.7496 47.069 13.2129 46.4736 13.2129H38.0332C37.438 13.2127 36.9531 12.7495 36.9531 12.1768V7.12402C36.9531 6.55126 37.438 6.08808 38.0332 6.08789H46.4736ZM39.1133 11.1416H45.3936V8.15918H39.1133V11.1416Z" fill="#6D95FC" stroke="white" stroke-width="0.05"/>
<path d="M98.1719 64.7061C98.7673 64.7062 99.252 65.1692 99.252 65.7422V71.873C99.252 75.7515 95.9574 78.9053 91.9111 78.9053H7.36621C3.31972 78.9053 0.0253906 75.7515 0.0253906 71.873V65.7422C0.0253906 65.1692 0.510255 64.7062 1.10547 64.7061H98.1719ZM2.18555 71.873C2.18555 74.6076 4.5088 76.834 7.36621 76.834H91.9121C94.7691 76.8337 97.0918 74.6074 97.0918 71.873V66.7773H2.18555V71.873Z" fill="white" stroke="#6D95FC" stroke-width="0.05"/>
<path d="M16.9316 12.1523C17.527 12.1523 18.0117 12.6156 18.0117 13.1885C18.0117 13.7613 17.527 14.2236 16.9316 14.2236H8.80762C5.15541 14.2237 2.18555 17.0705 2.18555 20.5664V64.7061H97.0918V20.5664C97.0918 17.0705 94.122 14.2237 90.4697 14.2236H82.3457C81.7501 14.2236 81.2657 13.7613 81.2656 13.1885C81.2656 12.6156 81.7501 12.1523 82.3457 12.1523H90.4697C95.311 12.1524 99.252 15.9264 99.252 20.5664V65.7412C99.252 66.3142 98.7673 66.7772 98.1719 66.7773H1.10547C0.510255 66.7771 0.0253906 66.3142 0.0253906 65.7412V20.5664C0.0253906 15.9264 3.96632 12.1524 8.80762 12.1523H16.9316Z" fill="white" stroke="#6D95FC" stroke-width="0.05"/>
<path d="M61.2432 6.08789C61.8388 6.08789 62.3232 6.55114 62.3232 7.12402V12.1768C62.3232 12.7496 61.8388 13.2129 61.2432 13.2129H52.8027C52.2073 13.2127 51.7227 12.7495 51.7227 12.1768V7.12402C51.7227 6.55126 52.2073 6.08808 52.8027 6.08789H61.2432ZM53.8828 11.1416H60.1631V8.15918H53.8828V11.1416Z" fill="#6D95FC" stroke="white" stroke-width="0.05"/>
<path d="M76.0151 13.1877H67.5746C66.9918 13.1877 66.5195 12.7352 66.5195 12.1771V7.12392C66.5195 6.56585 66.9918 6.11328 67.5746 6.11328H76.0151C76.5979 6.11328 77.0702 6.56585 77.0702 7.12392V12.1771C77.0702 12.7352 76.5979 13.1877 76.0151 13.1877ZM68.6297 11.1665H74.96V8.13456H68.6297V11.1665Z" fill="#6D95FC" stroke="#6D95FC" stroke-width="0.05"/>
<path d="M31.7026 45.5286H23.2621C22.6795 45.5286 22.207 45.076 22.207 44.5179V39.4647C22.207 38.9067 22.6795 38.4541 23.2621 38.4541H31.7026C32.2852 38.4541 32.7577 38.9067 32.7577 39.4647V44.5179C32.7577 45.076 32.2852 45.5286 31.7026 45.5286ZM24.3172 43.5073H30.6475V40.4754H24.3172V43.5073Z" fill="#6D95FC" stroke="#6D95FC" stroke-width="0.05"/>
<path d="M46.4741 45.5286H38.0336C37.451 45.5286 36.9785 45.076 36.9785 44.5179V39.4647C36.9785 38.9067 37.451 38.4541 38.0336 38.4541H46.4741C47.0567 38.4541 47.5291 38.9067 47.5291 39.4647V44.5179C47.5291 45.076 47.0567 45.5286 46.4741 45.5286ZM39.0886 43.5073H45.419V40.4754H39.0886V43.5073Z" fill="#6D95FC" stroke="#6D95FC" stroke-width="0.05"/>
<path d="M61.2436 45.5286H52.8031C52.2203 45.5286 51.748 45.076 51.748 44.5179V39.4647C51.748 38.9067 52.2203 38.4541 52.8031 38.4541H61.2436C61.8264 38.4541 62.2987 38.9067 62.2987 39.4647V44.5179C62.2987 45.076 61.8264 45.5286 61.2436 45.5286ZM53.8582 43.5073H60.1885V40.4754H53.8582V43.5073Z" fill="#6D95FC" stroke="#6D95FC" stroke-width="0.05"/>
<path d="M76.0151 45.5286H67.5746C66.9918 45.5286 66.5195 45.076 66.5195 44.5179V39.4647C66.5195 38.9067 66.9918 38.4541 67.5746 38.4541H76.0151C76.5979 38.4541 77.0702 38.9067 77.0702 39.4647V44.5179C77.0702 45.076 76.5979 45.5286 76.0151 45.5286ZM68.6297 43.5073H74.96V40.4754H68.6297V43.5073Z" fill="#6D95FC" stroke="#6D95FC" stroke-width="0.05"/>
<path d="M61.2451 76.833C61.8406 76.8331 62.3252 77.2961 62.3252 77.8691V89.9971C62.325 90.5699 61.8405 91.0321 61.2451 91.0322H38.0332C37.4381 91.032 36.9533 90.5699 36.9531 89.9971V77.8691C36.9531 77.2962 37.438 76.8332 38.0332 76.833H61.2451ZM39.1133 88.9609H60.165V78.9043H39.1133V88.9609Z" fill="white" stroke="#6D95FC" stroke-width="0.05"/>
<path d="M55.9697 76.833C56.5653 76.833 57.0498 77.2961 57.0498 77.8691V89.9971C57.0496 90.57 56.5652 91.0322 55.9697 91.0322H43.3086C42.7135 91.032 42.2287 90.5699 42.2285 89.9971V77.8691C42.2285 77.2962 42.7134 76.8332 43.3086 76.833H55.9697ZM44.3887 88.9609H54.8896V78.9043H44.3887V88.9609Z" fill="white" stroke="#6D95FC" stroke-width="0.05"/>
<path d="M64.4102 88.9609C66.1682 88.961 67.6006 90.332 67.6006 92.0186C67.6004 93.705 66.1681 95.0751 64.4102 95.0752H34.8682C33.1103 95.0751 31.6779 93.705 31.6777 92.0186C31.6777 90.332 33.1102 88.961 34.8682 88.9609H64.4102ZM34.8682 91.0322C34.2993 91.0323 33.8379 91.4761 33.8379 92.0186C33.8381 92.5608 34.2994 93.0038 34.8682 93.0039H64.4102C64.979 93.0038 65.4403 92.5608 65.4404 92.0186C65.4404 91.4761 64.9791 91.0323 64.4102 91.0322H34.8682Z" fill="white" stroke="#6D95FC" stroke-width="0.05"/>
</svg>
