<svg width="95" height="95" viewBox="0 0 95 95" fill="none" xmlns="http://www.w3.org/2000/svg">
<path d="M29.8788 67.4202H16.0884C15.6657 67.4202 15.3223 67.0768 15.3223 66.6541V57.4605C15.3223 57.0377 15.6657 56.6943 16.0884 56.6943C16.5111 56.6943 16.8545 57.0377 16.8545 57.4605V65.888H29.8788C30.3016 65.888 30.645 66.2313 30.645 66.6541C30.645 67.0768 30.3016 67.4202 29.8788 67.4202Z" fill="#6D95FC"/>
<path d="M89.6364 67.4201H49.7974C49.3746 67.4201 49.0312 67.0767 49.0312 66.654C49.0312 66.2312 49.3746 65.8878 49.7974 65.8878H88.8694V27.5811H51.3279C50.9052 27.5811 50.5618 27.2377 50.5618 26.815C50.5618 26.3922 50.9052 26.0488 51.3279 26.0488H89.6346C90.0574 26.0488 90.4008 26.3922 90.4008 26.815V66.654C90.4008 67.0767 90.0574 67.4201 89.6346 67.4201H89.6364Z" fill="white"/>
<path d="M40.6035 91.936C40.5502 91.936 40.4934 91.9298 40.438 91.9175C40.0241 91.8258 39.7656 91.4168 39.8559 91.0029L42.9204 77.2125C43.0121 76.8 43.417 76.5428 43.835 76.6304C44.2488 76.722 44.5074 77.1311 44.4171 77.545L41.3526 91.3354C41.2732 91.6925 40.9544 91.936 40.6035 91.936Z" fill="white"/>
<path d="M65.1196 91.9359C64.7687 91.9359 64.45 91.6924 64.372 91.3353L61.3074 77.5449C61.2158 77.1311 61.4757 76.722 61.8896 76.6303C62.3082 76.5428 62.7125 76.8007 62.8042 77.2125L65.8687 91.0029C65.9604 91.4167 65.7004 91.8258 65.2866 91.9175C65.2298 91.9298 65.173 91.9359 65.1196 91.9359Z" fill="white"/>
<path d="M74.3131 78.1461H15.6648C12.9402 78.1461 10.7246 75.8997 10.7246 73.1369V57.4605C10.7246 57.0377 11.068 56.6943 11.4907 56.6943C11.9135 56.6943 12.2569 57.0377 12.2569 57.4605V73.1369C12.2569 75.0542 13.7844 76.6138 15.6648 76.6138H74.3131C74.7358 76.6138 75.0792 76.9572 75.0792 77.38C75.0792 77.8027 74.7358 78.1461 74.3131 78.1461Z" fill="white"/>
<path d="M90.0593 78.1461H86.5721C86.1493 78.1461 85.8059 77.8027 85.8059 77.38C85.8059 76.9572 86.1493 76.6138 86.5721 76.6138H90.0593C91.9398 76.6138 93.4673 75.0542 93.4673 73.1369V26.4614C93.4673 24.544 91.9398 22.9844 90.0593 22.9844H51.3306C50.9078 22.9844 50.5645 22.641 50.5645 22.2183C50.5645 21.7955 50.9078 21.4521 51.3306 21.4521H90.0593C92.784 21.4521 94.9996 23.6985 94.9996 26.4614V73.1369C94.9996 75.899 92.784 78.1456 90.0593 78.1456V78.1461Z" fill="white"/>
<path d="M82.7424 95.0006H78.1456C75.6112 95.0006 73.5488 92.9383 73.5488 90.4038V76.6134C73.5488 74.0789 75.6112 72.0166 78.1456 72.0166H82.7424C85.2769 72.0166 87.3393 74.0789 87.3393 76.6134V90.4038C87.3393 92.9383 85.2769 95.0006 82.7424 95.0006ZM78.1456 73.5489C76.4554 73.5489 75.0811 74.9231 75.0811 76.6134V90.4038C75.0811 92.0941 76.4554 93.4684 78.1456 93.4684H82.7424C84.4327 93.4684 85.807 92.0941 85.807 90.4038V76.6134C85.807 74.9231 84.4327 73.5489 82.7424 73.5489H78.1456Z" fill="white"/>
<path d="M80.4419 81.2101C80.0192 81.2101 79.6758 80.8667 79.6758 80.444V77.3794C79.6758 76.9567 80.0192 76.6133 80.4419 76.6133C80.8647 76.6133 81.2081 76.9567 81.2081 77.3794V80.444C81.2081 80.8667 80.8647 81.2101 80.4419 81.2101Z" fill="white"/>
<path d="M68.184 95.0011H37.5386C36.2718 95.0011 35.2402 93.9696 35.2402 92.7027C35.2402 91.4358 36.2718 90.4043 37.5386 90.4043H68.184C69.4509 90.4043 70.4824 91.4358 70.4824 92.7027C70.4824 93.9696 69.4509 95.0011 68.184 95.0011ZM37.5386 91.9366C37.1173 91.9366 36.7725 92.28 36.7725 92.7027C36.7725 93.1254 37.1173 93.4688 37.5386 93.4688H68.184C68.6054 93.4688 68.9502 93.1254 68.9502 92.7027C68.9502 92.28 68.6054 91.9366 68.184 91.9366H37.5386Z" fill="white"/>
<path d="M51.331 58.2262H0.766135C0.343386 58.2262 0 57.8829 0 57.4601V0.766135C0 0.343386 0.343386 0 0.766135 0H51.331C51.7538 0 52.0972 0.343386 52.0972 0.766135V57.4601C52.0972 57.8829 51.7538 58.2262 51.331 58.2262ZM1.53139 56.694H50.564V1.53227H1.53139V56.694Z" fill="white"/>
<path d="M86.5715 18.3871H62.0552C61.6324 18.3871 61.2891 18.0438 61.2891 17.621V3.83059C61.2891 3.40784 61.6324 3.06445 62.0552 3.06445H86.5715C86.9943 3.06445 87.3376 3.40784 87.3376 3.83059V17.621C87.3376 18.0438 86.9943 18.3871 86.5715 18.3871ZM62.8222 16.8549H85.8062V4.59672H62.8222V16.8549Z" fill="white"/>
<path d="M85.0414 38.3069H55.9282C55.5055 38.3069 55.1621 37.9635 55.1621 37.5407V31.4116C55.1621 30.9889 55.5055 30.6455 55.9282 30.6455H85.0414C85.4641 30.6455 85.8075 30.9889 85.8075 31.4116V37.5407C85.8075 37.9635 85.4641 38.3069 85.0414 38.3069ZM56.6935 36.7746H84.2743V32.1778H56.6935V36.7746Z" fill="#6D95FC"/>
<path d="M65.1199 53.6291H55.9263C55.5035 53.6291 55.1602 53.2857 55.1602 52.863V46.7339C55.1602 46.3112 55.5035 45.9678 55.9263 45.9678H65.1199C65.5427 45.9678 65.886 46.3112 65.886 46.7339V52.863C65.886 53.2857 65.5427 53.6291 65.1199 53.6291ZM56.6924 52.0969H64.3538V47.5H56.6924V52.0969Z" fill="#6D95FC"/>
<path d="M85.04 53.6291H69.7173C69.2946 53.6291 68.9512 53.2857 68.9512 52.863V46.7339C68.9512 46.3112 69.2946 45.9678 69.7173 45.9678H85.04C85.4627 45.9678 85.8061 46.3112 85.8061 46.7339V52.863C85.8061 53.2857 85.4627 53.6291 85.04 53.6291ZM70.4834 52.0969H84.2739V47.5H70.4834V52.0969Z" fill="#6D95FC"/>
<path d="M85.0414 62.8233H20.6861C20.2633 62.8233 19.9199 62.4799 19.9199 62.0572C19.9199 61.6344 20.2633 61.291 20.6861 61.291H85.0414C85.4641 61.291 85.8075 61.6344 85.8075 62.0572C85.8075 62.4799 85.4641 62.8233 85.0414 62.8233Z" fill="#6D95FC"/>
<path d="M85.0414 58.2266H55.9282C55.5055 58.2266 55.1621 57.8832 55.1621 57.4605C55.1621 57.0377 55.5055 56.6943 55.9282 56.6943H85.0414C85.4641 56.6943 85.8075 57.0377 85.8075 57.4605C85.8075 57.8832 85.4641 58.2266 85.0414 58.2266Z" fill="#6D95FC"/>
<path d="M85.0414 42.9034H55.9282C55.5055 42.9034 55.1621 42.56 55.1621 42.1372C55.1621 41.7145 55.5055 41.3711 55.9282 41.3711H85.0414C85.4641 41.3711 85.8075 41.7145 85.8075 42.1372C85.8075 42.56 85.4641 42.9034 85.0414 42.9034Z" fill="#6D95FC"/>
<path d="M9.95763 13.7903C7.84467 13.7903 6.12695 12.0712 6.12695 9.95958C6.12695 7.84792 7.8446 6.12891 9.95763 6.12891C12.0707 6.12891 13.7883 7.84792 13.7883 9.95958C13.7883 12.0712 12.0707 13.7903 9.95763 13.7903ZM9.95763 7.66118C8.69076 7.66118 7.65922 8.69272 7.65922 9.95958C7.65922 11.2264 8.69076 12.258 9.95763 12.258C11.2245 12.258 12.256 11.2264 12.256 9.95958C12.256 8.69272 11.2245 7.66118 9.95763 7.66118Z" fill="#6D95FC"/>
<path d="M13.0222 18.3868H6.89309C6.47034 18.3868 6.12695 18.0434 6.12695 17.6206C6.12695 17.1979 6.47034 16.8545 6.89309 16.8545H13.0222C13.4449 16.8545 13.7883 17.1979 13.7883 17.6206C13.7883 18.0434 13.4449 18.3868 13.0222 18.3868Z" fill="#6D95FC"/>
<path d="M29.8787 18.3868H22.2173C21.7946 18.3868 21.4512 18.0434 21.4512 17.6206C21.4512 17.1979 21.7946 16.8545 22.2173 16.8545H29.8787C30.3014 16.8545 30.6448 17.1979 30.6448 17.6206C30.6448 18.0434 30.3014 18.3868 29.8787 18.3868Z" fill="#6D95FC"/>
<path d="M42.1373 13.7903C40.0244 13.7903 38.3066 12.0712 38.3066 9.95958C38.3066 7.84792 40.0243 6.12891 42.1373 6.12891C44.2503 6.12891 45.968 7.84792 45.968 9.95958C45.968 12.0712 44.2503 13.7903 42.1373 13.7903ZM42.1373 7.66118C40.8705 7.66118 39.8389 8.69272 39.8389 9.95958C39.8389 11.2264 40.8705 12.258 42.1373 12.258C43.4042 12.258 44.4357 11.2264 44.4357 9.95958C44.4357 8.69272 43.4042 7.66118 42.1373 7.66118Z" fill="#6D95FC"/>
<path d="M45.2019 18.3868H39.0728C38.65 18.3868 38.3066 18.0434 38.3066 17.6206C38.3066 17.1979 38.65 16.8545 39.0728 16.8545H45.2019C45.6246 16.8545 45.968 17.1979 45.968 17.6206C45.968 18.0434 45.6246 18.3868 45.2019 18.3868Z" fill="#6D95FC"/>
<path d="M29.8787 13.7903H22.2173C21.7946 13.7903 21.4512 13.4469 21.4512 13.0241V6.89504C21.4512 6.47229 21.7946 6.12891 22.2173 6.12891H29.8787C30.3014 6.12891 30.6448 6.47229 30.6448 6.89504V13.0241C30.6448 13.4469 30.3014 13.7903 29.8787 13.7903ZM22.9834 12.258H29.1125V7.66118H22.9834V12.258Z" fill="#6D95FC"/>
<path d="M45.2018 33.71H6.89504C6.47229 33.71 6.12891 33.3666 6.12891 32.9439C6.12891 32.5211 6.47229 32.1777 6.89504 32.1777H45.2018C45.6245 32.1777 45.9679 32.5211 45.9679 32.9439C45.9679 33.3666 45.6245 33.71 45.2018 33.71Z" fill="#6D95FC"/>
<path d="M45.2018 52.0967H6.89504C6.47229 52.0967 6.12891 51.7533 6.12891 51.3306C6.12891 50.9078 6.47229 50.5645 6.89504 50.5645H45.2018C45.6245 50.5645 45.9679 50.9078 45.9679 51.3306C45.9679 51.7533 45.6245 52.0967 45.2018 52.0967Z" fill="#6D95FC"/>
<path d="M78.9127 9.1934H75.8482C75.4254 9.1934 75.082 8.85002 75.082 8.42727C75.082 8.00452 75.4254 7.66113 75.8482 7.66113H78.9127C79.3355 7.66113 79.6788 8.00452 79.6788 8.42727C79.6788 8.85002 79.3355 9.1934 78.9127 9.1934Z" fill="white"/>
<path d="M81.9772 13.7901H75.8482C75.4254 13.7901 75.082 13.4467 75.082 13.0239C75.082 12.6012 75.4254 12.2578 75.8482 12.2578H81.9772C82.4 12.2578 82.7434 12.6012 82.7434 13.0239C82.7434 13.4467 82.4 13.7901 81.9772 13.7901Z" fill="white"/>
<path d="M72.7819 13.7902H66.6529C66.2301 13.7902 65.8867 13.4468 65.8867 13.0241V8.42727C65.8867 8.00452 66.2301 7.66113 66.6529 7.66113H72.7819C73.2047 7.66113 73.5481 8.00452 73.5481 8.42727V13.0241C73.5481 13.4468 73.2047 13.7902 72.7819 13.7902ZM67.419 12.2579H72.0158V9.1934H67.419V12.2579Z" fill="white"/>
<path d="M42.1365 67.42H34.4751C34.0524 67.42 33.709 67.0766 33.709 66.6538C33.709 66.2311 34.0524 65.8877 34.4751 65.8877H42.1365C42.5592 65.8877 42.9026 66.2311 42.9026 66.6538C42.9026 67.0766 42.5592 67.42 42.1365 67.42Z" fill="#6D95FC"/>
</svg>
