<svg width="95" height="100" viewBox="0 0 95 100" fill="none" xmlns="http://www.w3.org/2000/svg">
<mask id="path-1-inside-1_74_157" fill="white">
<path d="M87.9928 83.509H7.00716C3.14329 83.509 0 80.4107 0 76.6021V70.5587C0 70.0084 0.452564 69.5625 1.01064 69.5625H93.9894C94.5476 69.5625 95 70.0084 95 70.5587V76.6021C95 80.4107 91.8565 83.509 87.9928 83.509ZM2.02128 71.5549V76.6021C2.02128 79.3121 4.25782 81.5167 7.00716 81.5167H87.993C90.7424 81.5167 92.9789 79.3121 92.9789 76.6021V71.5549H2.02128Z"/>
</mask>
<path d="M87.9928 83.509H7.00716C3.14329 83.509 0 80.4107 0 76.6021V70.5587C0 70.0084 0.452564 69.5625 1.01064 69.5625H93.9894C94.5476 69.5625 95 70.0084 95 70.5587V76.6021C95 80.4107 91.8565 83.509 87.9928 83.509ZM2.02128 71.5549V76.6021C2.02128 79.3121 4.25782 81.5167 7.00716 81.5167H87.993C90.7424 81.5167 92.9789 79.3121 92.9789 76.6021V71.5549H2.02128Z" fill="#6D95FC"/>
<path d="M2.02128 71.5549V67.5549H-1.97872V71.5549H2.02128ZM92.9789 71.5549H96.9789V67.5549H92.9789V71.5549ZM87.9928 79.509H7.00716V87.509H87.9928V79.509ZM7.00716 79.509C5.2979 79.509 4 78.1474 4 76.6021H-4C-4 82.674 0.988672 87.509 7.00716 87.509V79.509ZM4 76.6021V70.5587H-4V76.6021H4ZM4 70.5587C4 72.2722 2.60665 73.5625 1.01064 73.5625V65.5625C-1.70152 65.5625 -4 67.7446 -4 70.5587H4ZM1.01064 73.5625H93.9894V65.5625H1.01064V73.5625ZM93.9894 73.5625C92.393 73.5625 91 72.2717 91 70.5587H99C99 67.7451 96.7023 65.5625 93.9894 65.5625V73.5625ZM91 70.5587V76.6021H99V70.5587H91ZM91 76.6021C91 78.1474 89.702 79.509 87.9928 79.509V87.509C94.0111 87.509 99 82.6741 99 76.6021H91ZM-1.97872 71.5549V76.6021H6.02128V71.5549H-1.97872ZM-1.97872 76.6021C-1.97872 81.5754 2.1032 85.5167 7.00716 85.5167V77.5167C6.41244 77.5167 6.02128 77.0489 6.02128 76.6021H-1.97872ZM7.00716 85.5167H87.993V77.5167H7.00716V85.5167ZM87.993 85.5167C92.897 85.5167 96.9789 81.5754 96.9789 76.6021H88.9789C88.9789 77.0489 88.5878 77.5167 87.993 77.5167V85.5167ZM96.9789 76.6021V71.5549H88.9789V76.6021H96.9789ZM92.9789 67.5549H2.02128V75.5549H92.9789V67.5549Z" fill="#FBFBFB" mask="url(#path-1-inside-1_74_157)"/>
<mask id="path-3-inside-2_74_157" fill="white">
<path d="M93.9894 71.5546H1.01064C0.452564 71.5546 0 71.1087 0 70.5584V26.0291C0 21.4699 3.76301 17.7607 8.3883 17.7607H43.5589C44.117 17.7607 44.5696 18.2068 44.5696 18.7569C44.5696 19.307 44.117 19.7531 43.5589 19.7531H8.3883C4.87754 19.7531 2.02128 22.5685 2.02128 26.0291V69.5622H92.9787V26.0291C92.9787 22.5685 90.1225 19.7531 86.6117 19.7531H63.5685C63.0103 19.7531 62.5579 19.307 62.5579 18.7569C62.5579 18.2068 63.0103 17.7607 63.5685 17.7607H86.6117C91.237 17.7607 95 21.4699 95 26.0291V70.5584C95 71.1087 94.5476 71.5546 93.9894 71.5546Z"/>
</mask>
<path d="M93.9894 71.5546H1.01064C0.452564 71.5546 0 71.1087 0 70.5584V26.0291C0 21.4699 3.76301 17.7607 8.3883 17.7607H43.5589C44.117 17.7607 44.5696 18.2068 44.5696 18.7569C44.5696 19.307 44.117 19.7531 43.5589 19.7531H8.3883C4.87754 19.7531 2.02128 22.5685 2.02128 26.0291V69.5622H92.9787V26.0291C92.9787 22.5685 90.1225 19.7531 86.6117 19.7531H63.5685C63.0103 19.7531 62.5579 19.307 62.5579 18.7569C62.5579 18.2068 63.0103 17.7607 63.5685 17.7607H86.6117C91.237 17.7607 95 21.4699 95 26.0291V70.5584C95 71.1087 94.5476 71.5546 93.9894 71.5546Z" fill="#6D95FC"/>
<path d="M2.02128 69.5622H-1.97872V73.5622H2.02128V69.5622ZM92.9787 69.5622V73.5622H96.9787V69.5622H92.9787ZM93.9894 67.5546H1.01064V75.5546H93.9894V67.5546ZM1.01064 67.5546C2.60665 67.5546 4 68.8449 4 70.5584H-4C-4 73.3725 -1.70152 75.5546 1.01064 75.5546V67.5546ZM4 70.5584V26.0291H-4V70.5584H4ZM4 26.0291C4 23.7332 5.91762 21.7607 8.3883 21.7607V13.7607C1.6084 13.7607 -4 19.2067 -4 26.0291H4ZM8.3883 21.7607H43.5589V13.7607H8.3883V21.7607ZM43.5589 21.7607C41.9624 21.7607 40.5696 20.4701 40.5696 18.7569H48.5696C48.5696 15.9436 46.2716 13.7607 43.5589 13.7607V21.7607ZM40.5696 18.7569C40.5696 17.0437 41.9624 15.7531 43.5589 15.7531V23.7531C46.2716 23.7531 48.5696 21.5703 48.5696 18.7569H40.5696ZM43.5589 15.7531H8.3883V23.7531H43.5589V15.7531ZM8.3883 15.7531C2.72293 15.7531 -1.97872 20.3052 -1.97872 26.0291H6.02128C6.02128 24.8318 7.03215 23.7531 8.3883 23.7531V15.7531ZM-1.97872 26.0291V69.5622H6.02128V26.0291H-1.97872ZM2.02128 73.5622H92.9787V65.5622H2.02128V73.5622ZM96.9787 69.5622V26.0291H88.9787V69.5622H96.9787ZM96.9787 26.0291C96.9787 20.3052 92.2771 15.7531 86.6117 15.7531V23.7531C87.9678 23.7531 88.9787 24.8318 88.9787 26.0291H96.9787ZM86.6117 15.7531H63.5685V23.7531H86.6117V15.7531ZM63.5685 15.7531C65.1654 15.7531 66.5579 17.0443 66.5579 18.7569H58.5579C58.5579 21.5698 60.8551 23.7531 63.5685 23.7531V15.7531ZM66.5579 18.7569C66.5579 20.4696 65.1654 21.7607 63.5685 21.7607V13.7607C60.8551 13.7607 58.5579 15.9441 58.5579 18.7569H66.5579ZM63.5685 21.7607H86.6117V13.7607H63.5685V21.7607ZM86.6117 21.7607C89.0824 21.7607 91 23.7332 91 26.0291H99C99 19.2067 93.3916 13.7607 86.6117 13.7607V21.7607ZM91 26.0291V70.5584H99V26.0291H91ZM91 70.5584C91 68.8454 92.393 67.5546 93.9894 67.5546V75.5546C96.7023 75.5546 99 73.3719 99 70.5584H91Z" fill="#FBFBFB" mask="url(#path-3-inside-2_74_157)"/>
<mask id="path-5-inside-3_74_157" fill="white">
<path d="M31.6338 41.3682C31.3696 41.3682 31.1115 41.266 30.919 41.0766C30.6561 40.8174 30.5588 40.437 30.6658 40.086L34.9535 25.998C35.0016 25.84 35.0885 25.6963 35.2068 25.5798L58.7896 2.33425C60.3167 0.829023 62.3471 0 64.5064 0C66.6661 0 68.6963 0.829023 70.2234 2.33425C71.7506 3.83948 72.5917 5.84081 72.5917 7.96946C72.5917 10.0983 71.7506 12.0994 70.2234 13.6049L46.6409 36.8502C46.5227 36.9667 46.3769 37.0526 46.2167 37.0998L31.9242 41.3262C31.8286 41.3547 31.7308 41.3682 31.6338 41.3682ZM36.8161 26.8108L33.141 38.8864L45.3918 35.2636L68.7943 12.1959C69.9396 11.0668 70.5704 9.56594 70.5704 7.96946C70.5704 6.37297 69.9396 4.87193 68.7943 3.74305C67.6491 2.61398 66.1262 1.99236 64.5064 1.99236C62.8867 1.99236 61.3639 2.61418 60.2187 3.74305L36.8161 26.8108Z"/>
</mask>
<path d="M31.6338 41.3682C31.3696 41.3682 31.1115 41.266 30.919 41.0766C30.6561 40.8174 30.5588 40.437 30.6658 40.086L34.9535 25.998C35.0016 25.84 35.0885 25.6963 35.2068 25.5798L58.7896 2.33425C60.3167 0.829023 62.3471 0 64.5064 0C66.6661 0 68.6963 0.829023 70.2234 2.33425C71.7506 3.83948 72.5917 5.84081 72.5917 7.96946C72.5917 10.0983 71.7506 12.0994 70.2234 13.6049L46.6409 36.8502C46.5227 36.9667 46.3769 37.0526 46.2167 37.0998L31.9242 41.3262C31.8286 41.3547 31.7308 41.3682 31.6338 41.3682ZM36.8161 26.8108L33.141 38.8864L45.3918 35.2636L68.7943 12.1959C69.9396 11.0668 70.5704 9.56594 70.5704 7.96946C70.5704 6.37297 69.9396 4.87193 68.7943 3.74305C67.6491 2.61398 66.1262 1.99236 64.5064 1.99236C62.8867 1.99236 61.3639 2.61418 60.2187 3.74305L36.8161 26.8108Z" fill="#6D95FC"/>
<path d="M30.919 41.0766L28.1111 43.9253L28.1126 43.9268L30.919 41.0766ZM30.6658 40.086L34.4922 41.2514L34.4925 41.2506L30.6658 40.086ZM34.9535 25.998L31.1269 24.8328L31.1268 24.8333L34.9535 25.998ZM35.2068 25.5798L32.3988 22.731H32.3988L35.2068 25.5798ZM58.7896 2.33425L61.5976 5.18298V5.18298L58.7896 2.33425ZM70.2234 2.33425L67.4154 5.18298L67.4156 5.18317L70.2234 2.33425ZM70.2234 13.6049L67.4154 10.7561L67.4154 10.7561L70.2234 13.6049ZM46.6409 36.8502L49.4489 39.6989L49.4489 39.6989L46.6409 36.8502ZM46.2167 37.0998L45.0863 33.2628L45.0824 33.264L46.2167 37.0998ZM31.9242 41.3262L30.7899 37.4904L30.7819 37.4928L31.9242 41.3262ZM36.8161 26.8108L34.0081 23.9621L33.285 24.6749L32.9894 25.6462L36.8161 26.8108ZM33.141 38.8864L29.3143 37.7217L27.1513 44.8288L34.2753 42.7222L33.141 38.8864ZM45.3918 35.2636L46.5261 39.0994L47.4865 38.8154L48.1998 38.1124L45.3918 35.2636ZM68.7943 12.1959L71.6023 15.0446L71.6026 15.0443L68.7943 12.1959ZM68.7943 3.74305L65.9861 6.59153L65.9863 6.59178L68.7943 3.74305ZM60.2187 3.74305L63.0266 6.59178L60.2187 3.74305ZM31.6338 37.3682C32.3959 37.3682 33.1528 37.6624 33.7255 38.2264L28.1126 43.9268C29.0701 44.8696 30.3433 45.3682 31.6338 45.3682V37.3682ZM33.727 38.2278C34.5156 39.0051 34.8221 40.1683 34.4922 41.2514L26.8393 38.9205C26.2956 40.7057 26.7965 42.6296 28.1111 43.9253L33.727 38.2278ZM34.4925 41.2506L38.7802 27.1626L31.1268 24.8333L26.8391 38.9213L34.4925 41.2506ZM38.7801 27.1631C38.6336 27.6441 38.3696 28.0787 38.0147 28.4285L32.3988 22.731C31.8075 23.3139 31.3696 24.0358 31.1269 24.8328L38.7801 27.1631ZM38.0147 28.4285L61.5976 5.18298L55.9816 -0.514475L32.3988 22.731L38.0147 28.4285ZM61.5976 5.18298C62.3703 4.4213 63.3896 4 64.5064 4V-4C61.3045 -4 58.263 -2.76325 55.9816 -0.514475L61.5976 5.18298ZM64.5064 4C65.6236 4 66.6426 4.4213 67.4154 5.18298L73.0313 -0.514475C70.7499 -2.76325 67.7087 -4 64.5064 -4V4ZM67.4156 5.18317C68.1864 5.94284 68.5917 6.92054 68.5917 7.96946H76.5917C76.5917 4.76109 75.3149 1.73613 73.0312 -0.51466L67.4156 5.18317ZM68.5917 7.96946C68.5917 9.01847 68.1864 9.99611 67.4154 10.7561L73.0313 16.4536C75.3148 14.2027 76.5917 11.1781 76.5917 7.96946H68.5917ZM67.4154 10.7561L43.8329 34.0014L49.4489 39.6989L73.0313 16.4536L67.4154 10.7561ZM43.8329 34.0014C44.1853 33.6542 44.6163 33.4013 45.0863 33.2628L47.347 40.9368C48.1376 40.7039 48.8601 40.2793 49.4489 39.6989L43.8329 34.0014ZM45.0824 33.264L30.7899 37.4904L33.0585 45.162L47.3509 40.9356L45.0824 33.264ZM30.7819 37.4928C31.0704 37.4068 31.3582 37.3682 31.6338 37.3682V45.3682C32.1034 45.3682 32.5868 45.3026 33.0666 45.1596L30.7819 37.4928ZM32.9894 25.6462L29.3143 37.7217L36.9677 40.051L40.6428 27.9755L32.9894 25.6462ZM34.2753 42.7222L46.5261 39.0994L44.2575 31.4278L32.0067 35.0506L34.2753 42.7222ZM48.1998 38.1124L71.6023 15.0446L65.9863 9.34713L42.5838 32.4149L48.1998 38.1124ZM71.6026 15.0443C73.5037 13.17 74.5704 10.6459 74.5704 7.96946H66.5704C66.5704 8.48602 66.3754 8.96354 65.9861 9.34738L71.6026 15.0443ZM74.5704 7.96946C74.5704 5.29326 73.5039 2.76869 71.6023 0.894325L65.9863 6.59178C66.3753 6.97516 66.5704 7.45269 66.5704 7.96946H74.5704ZM71.6026 0.894573C69.7026 -0.978566 67.1684 -2.00764 64.5064 -2.00764V5.99236C65.0841 5.99236 65.5956 6.20653 65.9861 6.59153L71.6026 0.894573ZM64.5064 -2.00764C61.8442 -2.00764 59.3103 -0.978113 57.4107 0.894325L63.0266 6.59178C63.4175 6.20647 63.9293 5.99236 64.5064 5.99236V-2.00764ZM57.4107 0.894325L34.0081 23.9621L39.6241 29.6596L63.0266 6.59178L57.4107 0.894325Z" fill="#6D95FC" mask="url(#path-5-inside-3_74_157)"/>
<mask id="path-7-inside-4_74_157" fill="white">
<path d="M39.4949 32.1736C38.3302 32.1736 37.1658 31.7367 36.279 30.8628C34.506 29.1149 34.506 26.271 36.279 24.5231C36.6736 24.1342 37.3135 24.1342 37.7083 24.5231C38.103 24.9122 38.103 25.5428 37.7083 25.9319C36.7231 26.903 36.7231 28.4829 37.7083 29.454C38.6934 30.4251 40.2963 30.4251 41.2815 29.454C41.6764 29.0651 42.3162 29.0653 42.7107 29.454C43.1055 29.8431 43.1055 30.4739 42.7107 30.8628C41.8242 31.7367 40.6595 32.1736 39.4949 32.1736Z"/>
</mask>
<path d="M39.4949 32.1736C38.3302 32.1736 37.1658 31.7367 36.279 30.8628C34.506 29.1149 34.506 26.271 36.279 24.5231C36.6736 24.1342 37.3135 24.1342 37.7083 24.5231C38.103 24.9122 38.103 25.5428 37.7083 25.9319C36.7231 26.903 36.7231 28.4829 37.7083 29.454C38.6934 30.4251 40.2963 30.4251 41.2815 29.454C41.6764 29.0651 42.3162 29.0653 42.7107 29.454C43.1055 29.8431 43.1055 30.4739 42.7107 30.8628C41.8242 31.7367 40.6595 32.1736 39.4949 32.1736Z" fill="#6D95FC"/>
<path d="M36.279 30.8628L33.4709 33.7114L33.4714 33.7119L36.279 30.8628ZM36.279 24.5231L33.471 21.6744L33.4709 21.6746L36.279 24.5231ZM37.7083 24.5231L40.5162 21.6744L40.5155 21.6737L37.7083 24.5231ZM41.2815 29.454L38.475 26.6039L38.4735 26.6053L41.2815 29.454ZM42.7107 29.454L45.5187 26.6053L45.518 26.6046L42.7107 29.454ZM42.7107 30.8628L39.9035 28.0134L39.9027 28.0141L42.7107 30.8628ZM39.4949 28.1736C39.3261 28.1736 39.1868 28.1125 39.0867 28.0138L33.4714 33.7119C35.1447 35.3609 37.3343 36.1736 39.4949 36.1736V28.1736ZM39.0872 28.0143C38.9032 27.833 38.9032 27.553 39.0872 27.3717L33.4709 21.6746C30.1087 24.9891 30.1087 30.3969 33.4709 33.7114L39.0872 28.0143ZM39.087 27.3719C37.9238 28.5184 36.063 28.5173 34.901 27.3726L40.5155 21.6737C38.564 19.7511 35.4233 19.7501 33.471 21.6744L39.087 27.3719ZM34.9003 27.3719C33.7057 26.1943 33.7057 24.2607 34.9003 23.0832L40.5162 28.7807C42.5004 26.8249 42.5004 23.6301 40.5162 21.6744L34.9003 27.3719ZM34.9003 23.0832C32.3258 25.6209 32.3258 29.7651 34.9003 32.3028L40.5162 26.6053C41.1204 27.2008 41.1204 28.1851 40.5162 28.7807L34.9003 23.0832ZM34.9003 32.3028C37.4428 34.8089 41.547 34.8089 44.0895 32.3028L38.4735 26.6053C39.0456 26.0413 39.9441 26.0413 40.5162 26.6053L34.9003 32.3028ZM44.088 32.3042C42.9259 33.4485 41.0659 33.4487 39.9035 32.3035L45.518 26.6046C43.5664 24.6819 40.427 24.6817 38.475 26.6039L44.088 32.3042ZM39.9027 32.3028C38.7085 31.1256 38.7075 29.1917 39.9035 28.0134L45.518 33.7123C47.5035 31.7562 47.5024 28.5606 45.5187 26.6053L39.9027 32.3028ZM39.9027 28.0141C39.8031 28.1123 39.6639 28.1736 39.4949 28.1736V36.1736C41.6551 36.1736 43.8453 35.361 45.5187 33.7116L39.9027 28.0141Z" fill="#6D95FC" mask="url(#path-7-inside-4_74_157)"/>
<mask id="path-9-inside-5_74_157" fill="white">
<path d="M44.4971 37.1069C43.2823 37.1069 42.1403 36.6405 41.2812 35.7939C40.4222 34.9474 39.9492 33.8215 39.9492 32.6241C39.9492 31.4267 40.4224 30.3008 41.2812 29.4542L53.8592 17.0563C54.2536 16.6674 54.8939 16.6674 55.2883 17.0563C55.683 17.4454 55.683 18.0762 55.2883 18.4651L42.7105 30.863C42.2333 31.3334 41.9703 31.9588 41.9703 32.6241C41.9703 33.2891 42.2331 33.9147 42.7105 34.3849C43.1877 34.8553 43.8222 35.1145 44.4969 35.1145C45.1718 35.1145 45.8063 34.8555 46.2835 34.3849C46.678 33.996 47.3182 33.996 47.7127 34.3849C48.1075 34.774 48.1075 35.4046 47.7129 35.7937C46.8541 36.6405 45.7119 37.1069 44.4971 37.1069Z"/>
</mask>
<path d="M44.4971 37.1069C43.2823 37.1069 42.1403 36.6405 41.2812 35.7939C40.4222 34.9474 39.9492 33.8215 39.9492 32.6241C39.9492 31.4267 40.4224 30.3008 41.2812 29.4542L53.8592 17.0563C54.2536 16.6674 54.8939 16.6674 55.2883 17.0563C55.683 17.4454 55.683 18.0762 55.2883 18.4651L42.7105 30.863C42.2333 31.3334 41.9703 31.9588 41.9703 32.6241C41.9703 33.2891 42.2331 33.9147 42.7105 34.3849C43.1877 34.8553 43.8222 35.1145 44.4969 35.1145C45.1718 35.1145 45.8063 34.8555 46.2835 34.3849C46.678 33.996 47.3182 33.996 47.7127 34.3849C48.1075 34.774 48.1075 35.4046 47.7129 35.7937C46.8541 36.6405 45.7119 37.1069 44.4971 37.1069Z" fill="#6D95FC"/>
<path d="M41.2812 29.4542L38.4733 26.6055L38.4733 26.6055L41.2812 29.4542ZM53.8592 17.0563L56.6672 19.9051L56.6679 19.9043L53.8592 17.0563ZM55.2883 17.0563L52.4796 19.9043L52.4803 19.9051L55.2883 17.0563ZM55.2883 18.4651L52.481 15.6157L52.4803 15.6164L55.2883 18.4651ZM42.7105 30.863L39.9025 28.0143H39.9025L42.7105 30.863ZM42.7105 34.3849L45.5185 31.5362L45.5173 31.535L42.7105 34.3849ZM46.2835 34.3849L43.4755 31.5362L43.4749 31.5368L46.2835 34.3849ZM47.7129 35.7937L50.5213 38.6421L50.5217 38.6417L47.7129 35.7937ZM44.4971 33.1069C44.325 33.1069 44.1939 33.0483 44.0889 32.9449L38.4736 38.643C40.0867 40.2326 42.2396 41.1069 44.4971 41.1069V33.1069ZM44.0889 32.9449C43.9868 32.8443 43.9492 32.7422 43.9492 32.6241H35.9492C35.9492 34.9007 36.8576 37.0505 38.4736 38.643L44.0889 32.9449ZM43.9492 32.6241C43.9492 32.5063 43.9867 32.404 44.0892 32.3029L38.4733 26.6055C36.8581 28.1976 35.9492 30.347 35.9492 32.6241H43.9492ZM44.0892 32.303L56.6672 19.9051L51.0513 14.2076L38.4733 26.6055L44.0892 32.303ZM56.6679 19.9043C55.5048 21.0514 53.6427 21.0514 52.4796 19.9043L58.097 14.2083C56.1452 12.2834 53.0024 12.2834 51.0505 14.2083L56.6679 19.9043ZM52.4803 19.9051C51.2861 18.7279 51.285 16.794 52.481 15.6157L58.0955 21.3146C60.081 19.3585 60.08 16.1629 58.0963 14.2076L52.4803 19.9051ZM52.4803 15.6164L39.9025 28.0143L45.5185 33.7117L58.0963 21.3139L52.4803 15.6164ZM39.9025 28.0143C38.6694 29.2298 37.9703 30.8786 37.9703 32.6241H45.9703C45.9703 33.0391 45.7972 33.437 45.5185 33.7117L39.9025 28.0143ZM37.9703 32.6241C37.9703 34.3683 38.6685 36.0183 39.9037 37.2348L45.5173 31.535C45.7977 31.8112 45.9703 32.2099 45.9703 32.6241H37.9703ZM39.9025 37.2336C41.1336 38.4471 42.779 39.1145 44.4969 39.1145V31.1145C44.8654 31.1145 45.2418 31.2635 45.5185 31.5362L39.9025 37.2336ZM44.4969 39.1145C46.2141 39.1145 47.8601 38.4479 49.0921 37.233L43.4749 31.5368C43.7524 31.2631 44.1295 31.1145 44.4969 31.1145V39.1145ZM49.0915 37.2336C47.9287 38.3798 46.0675 38.3798 44.9048 37.2336L50.5207 31.5362C48.5689 29.6122 45.4274 29.6122 43.4755 31.5362L49.0915 37.2336ZM44.9048 37.2336C43.7103 36.0563 43.7103 34.1232 44.9042 32.9457L50.5217 38.6417C52.5047 36.686 52.5047 33.4918 50.5207 31.5362L44.9048 37.2336ZM44.9046 32.9453C44.8003 33.0482 44.6694 33.1069 44.4971 33.1069V41.1069C46.7544 41.1069 48.9079 40.2328 50.5213 38.6421L44.9046 32.9453Z" fill="#6D95FC" mask="url(#path-9-inside-5_74_157)"/>
<mask id="path-11-inside-6_74_157" fill="white">
<path d="M66.6522 16.7143C66.3937 16.7143 66.1348 16.6171 65.9377 16.4226L55.9328 6.56083C55.538 6.17173 55.538 5.54094 55.9328 5.15203C56.3271 4.76312 56.9675 4.76312 57.3618 5.15203L67.3667 15.0138C67.7615 15.4029 67.7615 16.0337 67.3667 16.4226C67.1697 16.6171 66.9107 16.7143 66.6522 16.7143Z"/>
</mask>
<path d="M66.6522 16.7143C66.3937 16.7143 66.1348 16.6171 65.9377 16.4226L55.9328 6.56083C55.538 6.17173 55.538 5.54094 55.9328 5.15203C56.3271 4.76312 56.9675 4.76312 57.3618 5.15203L67.3667 15.0138C67.7615 15.4029 67.7615 16.0337 67.3667 16.4226C67.1697 16.6171 66.9107 16.7143 66.6522 16.7143Z" fill="#6D95FC"/>
<path d="M65.9377 16.4226L68.7471 13.5753L68.7457 13.5739L65.9377 16.4226ZM55.9328 6.56083L58.7408 3.71211L58.7408 3.71211L55.9328 6.56083ZM55.9328 5.15203L58.74 8.00148L58.7415 8.00004L55.9328 5.15203ZM57.3618 5.15203L54.5531 8.00004L54.5538 8.00076L57.3618 5.15203ZM67.3667 15.0138L64.5588 17.8626L67.3667 15.0138ZM67.3667 16.4226L64.5595 13.5732L64.5573 13.5754L67.3667 16.4226ZM66.6522 12.7143C67.3913 12.7143 68.1581 12.9941 68.7471 13.5754L63.1283 19.2699C64.1115 20.2401 65.3961 20.7143 66.6522 20.7143V12.7143ZM68.7457 13.5739L58.7408 3.71211L53.1248 9.40956L63.1297 19.2714L68.7457 13.5739ZM58.7408 3.71211C59.935 4.88922 59.936 6.82321 58.74 8.00148L53.1255 2.30259C51.14 4.25868 51.1411 7.45423 53.1248 9.40956L58.7408 3.71211ZM58.7415 8.00004C57.5784 9.14712 55.7162 9.14712 54.5531 8.00004L60.1705 2.30403C58.2187 0.379127 55.0759 0.379127 53.1241 2.30403L58.7415 8.00004ZM54.5538 8.00076L64.5588 17.8626L70.1747 12.1651L60.1698 2.30331L54.5538 8.00076ZM64.5588 17.8626C63.3646 16.6855 63.3635 14.7515 64.5595 13.5732L70.174 19.2721C72.1595 17.316 72.1584 14.1204 70.1747 12.1651L64.5588 17.8626ZM64.5573 13.5754C65.1464 12.9941 65.9132 12.7143 66.6522 12.7143V20.7143C67.9083 20.7143 69.193 20.2401 70.1762 19.2699L64.5573 13.5754Z" fill="#6D95FC" mask="url(#path-11-inside-6_74_157)"/>
<mask id="path-13-inside-7_74_157" fill="white">
<path d="M69.7331 61.5924H53.5629C50.2193 61.5924 47.4991 58.9111 47.4991 55.6153C47.4991 52.3196 50.2193 49.6382 53.5629 49.6382H75.797C78.026 49.6382 79.8395 47.8507 79.8395 45.6535V45.3531C79.8395 43.1559 78.026 41.3683 75.797 41.3683H31.6337C31.0756 41.3683 30.623 40.9223 30.623 40.3722C30.623 39.8221 31.0756 39.376 31.6337 39.376H75.797C79.1406 39.376 81.8608 42.0573 81.8608 45.3531V45.6535C81.8608 48.9493 79.1406 51.6306 75.797 51.6306H53.5629C51.3339 51.6306 49.5204 53.4182 49.5204 55.6153C49.5204 57.8125 51.3339 59.6001 53.5629 59.6001H69.7331C70.2914 59.6001 70.7438 60.046 70.7438 60.5962C70.7438 61.1465 70.2914 61.5924 69.7331 61.5924Z"/>
</mask>
<path d="M69.7331 61.5924H53.5629C50.2193 61.5924 47.4991 58.9111 47.4991 55.6153C47.4991 52.3196 50.2193 49.6382 53.5629 49.6382H75.797C78.026 49.6382 79.8395 47.8507 79.8395 45.6535V45.3531C79.8395 43.1559 78.026 41.3683 75.797 41.3683H31.6337C31.0756 41.3683 30.623 40.9223 30.623 40.3722C30.623 39.8221 31.0756 39.376 31.6337 39.376H75.797C79.1406 39.376 81.8608 42.0573 81.8608 45.3531V45.6535C81.8608 48.9493 79.1406 51.6306 75.797 51.6306H53.5629C51.3339 51.6306 49.5204 53.4182 49.5204 55.6153C49.5204 57.8125 51.3339 59.6001 53.5629 59.6001H69.7331C70.2914 59.6001 70.7438 60.046 70.7438 60.5962C70.7438 61.1465 70.2914 61.5924 69.7331 61.5924Z" fill="#6D95FC"/>
<path d="M69.7331 57.5924H53.5629V65.5924H69.7331V57.5924ZM53.5629 57.5924C52.3739 57.5924 51.4991 56.6478 51.4991 55.6153H43.4991C43.4991 61.1744 48.0647 65.5924 53.5629 65.5924V57.5924ZM51.4991 55.6153C51.4991 54.5828 52.3739 53.6382 53.5629 53.6382V45.6382C48.0647 45.6382 43.4991 50.0563 43.4991 55.6153H51.4991ZM53.5629 53.6382H75.797V45.6382H53.5629V53.6382ZM75.797 53.6382C80.1806 53.6382 83.8395 50.114 83.8395 45.6535H75.8395C75.8395 45.6523 75.8397 45.6474 75.8412 45.6405C75.8426 45.6337 75.8445 45.6279 75.8464 45.6235C75.85 45.6151 75.8515 45.6158 75.8462 45.6211C75.8408 45.6264 75.834 45.6309 75.8275 45.6336C75.8246 45.6348 75.8215 45.6357 75.8178 45.6365C75.8142 45.6372 75.8077 45.6382 75.797 45.6382V53.6382ZM83.8395 45.6535V45.3531H75.8395V45.6535H83.8395ZM83.8395 45.3531C83.8395 40.8926 80.1806 37.3683 75.797 37.3683V45.3683C75.8077 45.3683 75.8142 45.3694 75.8178 45.3701C75.8215 45.3708 75.8246 45.3718 75.8275 45.373C75.834 45.3757 75.8408 45.3802 75.8462 45.3855C75.8515 45.3908 75.85 45.3914 75.8464 45.3831C75.8445 45.3787 75.8426 45.3728 75.8412 45.3661C75.8397 45.3591 75.8395 45.3543 75.8395 45.3531H83.8395ZM75.797 37.3683H31.6337V45.3683H75.797V37.3683ZM31.6337 37.3683C33.2302 37.3683 34.623 38.659 34.623 40.3722H26.623C26.623 43.1855 28.921 45.3683 31.6337 45.3683V37.3683ZM34.623 40.3722C34.623 42.0853 33.2302 43.376 31.6337 43.376V35.376C28.921 35.376 26.623 37.5588 26.623 40.3722H34.623ZM31.6337 43.376H75.797V35.376H31.6337V43.376ZM75.797 43.376C76.9859 43.376 77.8608 44.3206 77.8608 45.3531H85.8608C85.8608 39.794 81.2952 35.376 75.797 35.376V43.376ZM77.8608 45.3531V45.6535H85.8608V45.3531H77.8608ZM77.8608 45.6535C77.8608 46.686 76.9859 47.6306 75.797 47.6306V55.6306C81.2952 55.6306 85.8608 51.2126 85.8608 45.6535H77.8608ZM75.797 47.6306H53.5629V55.6306H75.797V47.6306ZM53.5629 47.6306C49.1792 47.6306 45.5204 51.1549 45.5204 55.6153H53.5204C53.5204 55.6166 53.5202 55.6214 53.5187 55.6284C53.5173 55.6351 53.5153 55.641 53.5134 55.6454C53.5099 55.6537 53.5084 55.653 53.5137 55.6478C53.5191 55.6425 53.5259 55.638 53.5324 55.6353C53.5352 55.6341 53.5383 55.6331 53.5421 55.6323C53.5456 55.6316 53.5522 55.6306 53.5629 55.6306V47.6306ZM45.5204 55.6153C45.5204 60.0758 49.1792 63.6001 53.5629 63.6001V55.6001C53.5522 55.6001 53.5456 55.5991 53.5421 55.5983C53.5383 55.5976 53.5352 55.5966 53.5324 55.5954C53.5259 55.5927 53.5191 55.5882 53.5137 55.5829C53.5084 55.5776 53.5099 55.577 53.5134 55.5853C53.5153 55.5897 53.5173 55.5956 53.5187 55.6023C53.5202 55.6093 53.5204 55.6141 53.5204 55.6153H45.5204ZM53.5629 63.6001H69.7331V55.6001H53.5629V63.6001ZM69.7331 63.6001C68.1368 63.6001 66.7438 62.3092 66.7438 60.5962H74.7438C74.7438 57.7827 72.446 55.6001 69.7331 55.6001V63.6001ZM66.7438 60.5962C66.7438 58.8833 68.1368 57.5924 69.7331 57.5924V65.5924C72.446 65.5924 74.7438 63.4098 74.7438 60.5962H66.7438Z" fill="#6D95FC" mask="url(#path-13-inside-7_74_157)"/>
<mask id="path-15-inside-8_74_157" fill="white">
<path d="M31.3298 62.5881H1.01064C0.452564 62.5881 0 62.1422 0 61.5919C0 61.0416 0.452564 60.5957 1.01064 60.5957H31.3298C31.8879 60.5957 32.3404 61.0416 32.3404 61.5919C32.3404 62.1422 31.8879 62.5881 31.3298 62.5881Z"/>
</mask>
<path d="M31.3298 62.5881H1.01064C0.452564 62.5881 0 62.1422 0 61.5919C0 61.0416 0.452564 60.5957 1.01064 60.5957H31.3298C31.8879 60.5957 32.3404 61.0416 32.3404 61.5919C32.3404 62.1422 31.8879 62.5881 31.3298 62.5881Z" fill="#6D95FC"/>
<path d="M31.3298 58.5881H1.01064V66.5881H31.3298V58.5881ZM1.01064 58.5881C2.60665 58.5881 4 59.8784 4 61.5919H-4C-4 64.406 -1.70152 66.5881 1.01064 66.5881V58.5881ZM4 61.5919C4 63.3054 2.60665 64.5957 1.01064 64.5957V56.5957C-1.70152 56.5957 -4 58.7778 -4 61.5919H4ZM1.01064 64.5957H31.3298V56.5957H1.01064V64.5957ZM31.3298 64.5957C29.7338 64.5957 28.3404 63.3054 28.3404 61.5919H36.3404C36.3404 58.7778 34.0419 56.5957 31.3298 56.5957V64.5957ZM28.3404 61.5919C28.3404 59.8784 29.7338 58.5881 31.3298 58.5881V66.5881C34.0419 66.5881 36.3404 64.406 36.3404 61.5919H28.3404Z" fill="#FBFBFB" mask="url(#path-15-inside-8_74_157)"/>
<mask id="path-17-inside-9_74_157" fill="white">
<path d="M31.3298 56.6115H1.01064C0.452564 56.6115 0 56.1656 0 55.6153C0 55.065 0.452564 54.6191 1.01064 54.6191H31.3298C31.8879 54.6191 32.3404 55.065 32.3404 55.6153C32.3404 56.1656 31.8879 56.6115 31.3298 56.6115Z"/>
</mask>
<path d="M31.3298 56.6115H1.01064C0.452564 56.6115 0 56.1656 0 55.6153C0 55.065 0.452564 54.6191 1.01064 54.6191H31.3298C31.8879 54.6191 32.3404 55.065 32.3404 55.6153C32.3404 56.1656 31.8879 56.6115 31.3298 56.6115Z" fill="#6D95FC"/>
<path d="M31.3298 52.6115H1.01064V60.6115H31.3298V52.6115ZM1.01064 52.6115C2.60665 52.6115 4 53.9018 4 55.6153H-4C-4 58.4294 -1.70152 60.6115 1.01064 60.6115V52.6115ZM4 55.6153C4 57.3288 2.60665 58.6191 1.01064 58.6191V50.6191C-1.70152 50.6191 -4 52.8012 -4 55.6153H4ZM1.01064 58.6191H31.3298V50.6191H1.01064V58.6191ZM31.3298 58.6191C29.7338 58.6191 28.3404 57.3288 28.3404 55.6153H36.3404C36.3404 52.8012 34.0419 50.6191 31.3298 50.6191V58.6191ZM28.3404 55.6153C28.3404 53.9018 29.7338 52.6115 31.3298 52.6115V60.6115C34.0419 60.6115 36.3404 58.4294 36.3404 55.6153H28.3404Z" fill="#FBFBFB" mask="url(#path-17-inside-9_74_157)"/>
<mask id="path-19-inside-10_74_157" fill="white">
<path d="M31.3298 50.6349H1.01064C0.452564 50.6349 0 50.1891 0 49.6388C0 49.0887 0.452564 48.6426 1.01064 48.6426H31.3298C31.8879 48.6426 32.3404 49.0887 32.3404 49.6388C32.3404 50.1891 31.8879 50.6349 31.3298 50.6349Z"/>
</mask>
<path d="M31.3298 50.6349H1.01064C0.452564 50.6349 0 50.1891 0 49.6388C0 49.0887 0.452564 48.6426 1.01064 48.6426H31.3298C31.8879 48.6426 32.3404 49.0887 32.3404 49.6388C32.3404 50.1891 31.8879 50.6349 31.3298 50.6349Z" fill="#6D95FC"/>
<path d="M31.3298 46.6349H1.01064V54.6349H31.3298V46.6349ZM1.01064 46.6349C2.60667 46.6349 4 47.9253 4 49.6388H-4C-4 52.4528 -1.70154 54.6349 1.01064 54.6349V46.6349ZM4 49.6388C4 51.3519 2.60718 52.6426 1.01064 52.6426V44.6426C-1.70205 44.6426 -4 46.8254 -4 49.6388H4ZM1.01064 52.6426H31.3298V44.6426H1.01064V52.6426ZM31.3298 52.6426C29.7332 52.6426 28.3404 51.3519 28.3404 49.6388H36.3404C36.3404 46.8254 34.0425 44.6426 31.3298 44.6426V52.6426ZM28.3404 49.6388C28.3404 47.9253 29.7338 46.6349 31.3298 46.6349V54.6349C34.042 54.6349 36.3404 52.4528 36.3404 49.6388H28.3404Z" fill="#FBFBFB" mask="url(#path-19-inside-10_74_157)"/>
<mask id="path-21-inside-11_74_157" fill="white">
<path d="M58.6177 95.4622H36.3837C35.8256 95.4622 35.373 95.0163 35.373 94.466V82.5118C35.373 81.9615 35.8256 81.5156 36.3837 81.5156H58.6177C59.176 81.5156 59.6284 81.9615 59.6284 82.5118V94.466C59.6284 95.0163 59.176 95.4622 58.6177 95.4622ZM37.3943 93.4698H57.6071V83.508H37.3943V93.4698Z"/>
</mask>
<path d="M58.6177 95.4622H36.3837C35.8256 95.4622 35.373 95.0163 35.373 94.466V82.5118C35.373 81.9615 35.8256 81.5156 36.3837 81.5156H58.6177C59.176 81.5156 59.6284 81.9615 59.6284 82.5118V94.466C59.6284 95.0163 59.176 95.4622 58.6177 95.4622ZM37.3943 93.4698H57.6071V83.508H37.3943V93.4698Z" fill="#6D95FC"/>
<path d="M37.3943 93.4698H33.3943V97.4698H37.3943V93.4698ZM57.6071 93.4698V97.4698H61.6071V93.4698H57.6071ZM57.6071 83.508H61.6071V79.508H57.6071V83.508ZM37.3943 83.508V79.508H33.3943V83.508H37.3943ZM58.6177 91.4622H36.3837V99.4622H58.6177V91.4622ZM36.3837 91.4622C37.9797 91.4622 39.373 92.7525 39.373 94.466H31.373C31.373 97.2801 33.6715 99.4622 36.3837 99.4622V91.4622ZM39.373 94.466V82.5118H31.373V94.466H39.373ZM39.373 82.5118C39.373 84.2253 37.9797 85.5156 36.3837 85.5156V77.5156C33.6715 77.5156 31.373 79.6977 31.373 82.5118H39.373ZM36.3837 85.5156H58.6177V77.5156H36.3837V85.5156ZM58.6177 85.5156C57.0214 85.5156 55.6284 84.2248 55.6284 82.5118H63.6284C63.6284 79.6982 61.3306 77.5156 58.6177 77.5156V85.5156ZM55.6284 82.5118V94.466H63.6284V82.5118H55.6284ZM55.6284 94.466C55.6284 92.753 57.0214 91.4622 58.6177 91.4622V99.4622C61.3306 99.4622 63.6284 97.2796 63.6284 94.466H55.6284ZM37.3943 97.4698H57.6071V89.4698H37.3943V97.4698ZM61.6071 93.4698V83.508H53.6071V93.4698H61.6071ZM57.6071 79.508H37.3943V87.508H57.6071V79.508ZM33.3943 83.508V93.4698H41.3943V83.508H33.3943Z" fill="#FBFBFB" mask="url(#path-21-inside-11_74_157)"/>
<mask id="path-23-inside-12_74_157" fill="white">
<path d="M53.5641 95.4622H41.4364C40.8783 95.4622 40.4258 95.0163 40.4258 94.466V82.5118C40.4258 81.9615 40.8783 81.5156 41.4364 81.5156H53.5641C54.1224 81.5156 54.5747 81.9615 54.5747 82.5118V94.466C54.5747 95.0163 54.1224 95.4622 53.5641 95.4622ZM42.4471 93.4698H52.5534V83.508H42.4471V93.4698Z"/>
</mask>
<path d="M53.5641 95.4622H41.4364C40.8783 95.4622 40.4258 95.0163 40.4258 94.466V82.5118C40.4258 81.9615 40.8783 81.5156 41.4364 81.5156H53.5641C54.1224 81.5156 54.5747 81.9615 54.5747 82.5118V94.466C54.5747 95.0163 54.1224 95.4622 53.5641 95.4622ZM42.4471 93.4698H52.5534V83.508H42.4471V93.4698Z" fill="#6D95FC"/>
<path d="M42.4471 93.4698H38.4471V97.4698H42.4471V93.4698ZM52.5534 93.4698V97.4698H56.5534V93.4698H52.5534ZM52.5534 83.508H56.5534V79.508H52.5534V83.508ZM42.4471 83.508V79.508H38.4471V83.508H42.4471ZM53.5641 91.4622H41.4364V99.4622H53.5641V91.4622ZM41.4364 91.4622C43.0324 91.4622 44.4258 92.7525 44.4258 94.466H36.4258C36.4258 97.2801 38.7243 99.4622 41.4364 99.4622V91.4622ZM44.4258 94.466V82.5118H36.4258V94.466H44.4258ZM44.4258 82.5118C44.4258 84.2253 43.0324 85.5156 41.4364 85.5156V77.5156C38.7243 77.5156 36.4258 79.6977 36.4258 82.5118H44.4258ZM41.4364 85.5156H53.5641V77.5156H41.4364V85.5156ZM53.5641 85.5156C51.9677 85.5156 50.5747 84.2248 50.5747 82.5118H58.5747C58.5747 79.6982 56.277 77.5156 53.5641 77.5156V85.5156ZM50.5747 82.5118V94.466H58.5747V82.5118H50.5747ZM50.5747 94.466C50.5747 92.753 51.9677 91.4622 53.5641 91.4622V99.4622C56.277 99.4622 58.5747 97.2796 58.5747 94.466H50.5747ZM42.4471 97.4698H52.5534V89.4698H42.4471V97.4698ZM56.5534 93.4698V83.508H48.5534V93.4698H56.5534ZM52.5534 79.508H42.4471V87.508H52.5534V79.508ZM38.4471 83.508V93.4698H46.4471V83.508H38.4471Z" fill="#FBFBFB" mask="url(#path-23-inside-12_74_157)"/>
<mask id="path-25-inside-13_74_157" fill="white">
<path d="M61.6481 99.4468H33.3503C31.6785 99.4468 30.3184 98.1062 30.3184 96.4583C30.3184 94.8104 31.6785 93.4697 33.3503 93.4697H61.6481C63.3199 93.4697 64.6801 94.8104 64.6801 96.4583C64.6801 98.1062 63.3199 99.4468 61.6481 99.4468ZM33.3503 95.4621C32.793 95.4621 32.3396 95.909 32.3396 96.4583C32.3396 97.0076 32.793 97.4545 33.3503 97.4545H61.6481C62.2054 97.4545 62.6588 97.0076 62.6588 96.4583C62.6588 95.909 62.2054 95.4621 61.6481 95.4621H33.3503Z"/>
</mask>
<path d="M61.6481 99.4468H33.3503C31.6785 99.4468 30.3184 98.1062 30.3184 96.4583C30.3184 94.8104 31.6785 93.4697 33.3503 93.4697H61.6481C63.3199 93.4697 64.6801 94.8104 64.6801 96.4583C64.6801 98.1062 63.3199 99.4468 61.6481 99.4468ZM33.3503 95.4621C32.793 95.4621 32.3396 95.909 32.3396 96.4583C32.3396 97.0076 32.793 97.4545 33.3503 97.4545H61.6481C62.2054 97.4545 62.6588 97.0076 62.6588 96.4583C62.6588 95.909 62.2054 95.4621 61.6481 95.4621H33.3503Z" fill="#6D95FC"/>
<path d="M61.6481 95.4468H33.3503V103.447H61.6481V95.4468ZM33.3503 95.4468C33.8331 95.4468 34.3184 95.8429 34.3184 96.4583H26.3184C26.3184 100.369 29.5239 103.447 33.3503 103.447V95.4468ZM34.3184 96.4583C34.3184 97.0737 33.8331 97.4697 33.3503 97.4697V89.4697C29.5239 89.4697 26.3184 92.5471 26.3184 96.4583H34.3184ZM33.3503 97.4697H61.6481V89.4697H33.3503V97.4697ZM61.6481 97.4697C61.1653 97.4697 60.6801 97.0737 60.6801 96.4583H68.6801C68.6801 92.5471 65.4746 89.4697 61.6481 89.4697V97.4697ZM60.6801 96.4583C60.6801 95.8429 61.1653 95.4468 61.6481 95.4468V103.447C65.4746 103.447 68.6801 100.369 68.6801 96.4583H60.6801ZM33.3503 91.4621C30.6384 91.4621 28.3396 93.6457 28.3396 96.4583H36.3396C36.3396 98.1723 34.9476 99.4621 33.3503 99.4621V91.4621ZM28.3396 96.4583C28.3396 99.2708 30.6384 101.454 33.3503 101.454V93.4545C34.9476 93.4545 36.3396 94.7443 36.3396 96.4583H28.3396ZM33.3503 101.454H61.6481V93.4545H33.3503V101.454ZM61.6481 101.454C64.36 101.454 66.6588 99.2708 66.6588 96.4583H58.6588C58.6588 94.7443 60.0508 93.4545 61.6481 93.4545V101.454ZM66.6588 96.4583C66.6588 93.6457 64.36 91.4621 61.6481 91.4621V99.4621C60.0508 99.4621 58.6588 98.1723 58.6588 96.4583H66.6588ZM61.6481 91.4621H33.3503V99.4621H61.6481V91.4621Z" fill="#FBFBFB" mask="url(#path-25-inside-13_74_157)"/>
</svg>
