<svg width="104" height="96" viewBox="0 0 104 96" fill="none" xmlns="http://www.w3.org/2000/svg">
<path d="M83.1377 50.4736V95.5H65.1074V50.4736H83.1377ZM61.6143 61.2217V95.5H43.5771L43.5781 61.2217H61.6143ZM40.084 71.9658V95.5H22.041V71.9658H40.084ZM18.5381 82.7129V95.5H0.5V82.7129H18.5381ZM74.1201 15.1377H74.125C74.4247 15.136 74.6951 15.3129 74.8125 15.5869L74.8135 15.5889L78.3115 23.6426L78.4297 23.9131L78.7236 23.9404L87.4717 24.7637L87.5029 24.7666C87.7837 24.8079 88.0182 25.0019 88.1074 25.2715V25.2725C88.199 25.5538 88.117 25.8617 87.8984 26.0596L81.2949 31.8672L81.0723 32.0625L81.1367 32.3516L83.0527 40.917L83.0537 40.9219C83.1208 41.2085 83.0093 41.5083 82.7695 41.6816L82.7686 41.6826C82.6405 41.7758 82.4845 41.8247 82.3252 41.8242C82.1945 41.8229 82.0679 41.7886 81.958 41.7227L81.9551 41.7207L74.375 37.248L74.1201 37.0986L73.8662 37.249L66.3066 41.7197C66.0491 41.8706 65.7256 41.8547 65.4834 41.6797C65.2422 41.5051 65.1272 41.205 65.1904 40.9141L65.1895 40.9131L67.1162 32.3525L67.1807 32.0625L66.958 31.8672L60.3555 26.0635L60.3545 26.0625L60.2764 25.9834C60.1111 25.7886 60.0564 25.5198 60.1377 25.2725C60.2314 24.9892 60.4855 24.7891 60.7842 24.7646L60.7793 24.6484L60.79 24.7637L69.54 23.9404L69.834 23.9131L69.9521 23.6426L73.4502 15.5889L73.4531 15.5811C73.5638 15.3126 73.8277 15.1368 74.1201 15.1377ZM102.754 29.0664C102.952 29.0664 103.142 29.1455 103.282 29.2852C103.417 29.4197 103.492 29.6001 103.497 29.7891L103.498 29.8135C103.498 30.0095 103.421 30.1982 103.281 30.3369L103.28 30.3379C103.14 30.4774 102.95 30.5557 102.753 30.5557H92.335C91.934 30.5391 91.6183 30.2107 91.6182 29.8115C91.6182 29.4599 91.8629 29.1622 92.1953 29.085L92.3428 29.0664H102.754ZM45.4932 29.0664H55.9131L56.0605 29.085C56.3931 29.1621 56.6387 29.4598 56.6387 29.8115C56.6385 30.2108 56.322 30.5393 55.9209 30.5557H45.5L45.4932 30.5566C45.2902 30.5626 45.0934 30.4863 44.9492 30.3467L44.9482 30.3457C44.8034 30.2057 44.7218 30.0132 44.7217 29.8115C44.7217 29.6097 44.8033 29.4165 44.9482 29.2764H44.9492C45.0934 29.1366 45.2901 29.0604 45.4932 29.0664ZM53.8809 8.86328C54.0789 8.86332 54.2685 8.94217 54.4082 9.08203H54.4092L61.8359 16.4961L61.8398 16.5C61.9778 16.6399 62.0546 16.827 62.0547 17.0225C62.0547 17.219 61.9766 17.4083 61.8359 17.5488L61.835 17.5498C61.6974 17.688 61.5086 17.7666 61.3115 17.7666C61.1148 17.7666 60.9269 17.6883 60.7891 17.5498L60.7881 17.5488L53.3516 10.1348C53.068 9.84101 53.0675 9.37453 53.3516 9.08105L53.3525 9.08203C53.492 8.94236 53.6824 8.86328 53.8809 8.86328ZM93.8359 9.08594C94.1149 8.80938 94.5567 8.79467 94.8535 9.04102L94.8984 9.08496C95.0389 9.2247 95.1182 9.41499 95.1182 9.61133C95.1181 9.80854 95.0388 9.99811 94.8984 10.1377V10.1387L87.4707 17.5459C87.3268 17.6877 87.1332 17.768 86.9316 17.7676H86.9307C86.6282 17.767 86.3556 17.5839 86.2402 17.3057C86.1395 17.0631 86.1757 16.7878 86.3291 16.5801L86.4023 16.4951L93.8359 9.08594ZM74.124 0.5H74.125C74.3246 0.498623 74.5161 0.576871 74.6572 0.716797C74.799 0.857489 74.8779 1.04776 74.8779 1.24414V10.543C74.8656 10.9468 74.5338 11.2695 74.127 11.2695C73.7223 11.2695 73.3924 10.9508 73.377 10.5508V1.24512C73.3779 0.836138 73.7104 0.501838 74.124 0.5Z" fill="url(#paint0_linear_78_1243)" stroke="#6D95FC"/>
<defs>
<linearGradient id="paint0_linear_78_1243" x1="71.5" y1="62.5" x2="71.4841" y2="48" gradientUnits="userSpaceOnUse">
<stop offset="0.63776" stop-color="#6D95FC"/>
<stop offset="1" stop-color="white"/>
</linearGradient>
</defs>
</svg>
