<svg width="95" height="108" viewBox="0 0 95 108" fill="none" xmlns="http://www.w3.org/2000/svg">
<path d="M21.1191 11.4336C21.5001 11.4336 21.8655 11.5852 22.1348 11.8545C22.404 12.1238 22.5557 12.4892 22.5557 12.8701V18.2539H53.3281V12.8701C53.3281 12.0769 53.9714 11.4336 54.7646 11.4336H69.5117L69.8018 11.4414C71.2485 11.5145 72.6203 12.1213 73.6494 13.1504C74.6785 14.1795 75.2853 15.5514 75.3584 16.998L75.3662 17.2881V62.2793C75.3661 62.6909 75.1883 63.0827 74.8789 63.3555C74.5701 63.6276 74.1595 63.7544 73.75 63.7031H73.751C72.8722 63.5906 71.9864 63.5351 71.1006 63.5342C65.4318 63.529 60.0123 65.8672 56.1279 69.9961C52.2435 74.1241 50.2389 79.6758 50.5889 85.334C50.9389 90.9922 53.613 96.2535 57.9766 99.8721C58.4416 100.258 58.6141 100.896 58.4082 101.465C58.2212 101.982 57.7576 102.341 57.2207 102.402H6.35449C4.80294 102.4 3.3154 101.782 2.21777 100.685C1.18886 99.6557 0.581734 98.2837 0.507812 96.8379L0.5 96.5469V17.2881C0.501593 15.7357 1.11918 14.2481 2.2168 13.1504C3.24587 12.1213 4.61777 11.5145 6.06445 11.4414L6.35449 11.4336H21.1191ZM19.6826 14.3076H19.1826L6.35352 14.3066H6.34961C4.71214 14.3212 3.39024 15.648 3.37988 17.2852V96.5488L3.38379 96.7021C3.46515 98.2727 4.76092 99.5231 6.35156 99.5293H53.4824L52.8311 98.7168C49.1324 94.1057 47.3152 88.2651 47.7451 82.3691C48.1752 76.4732 50.8192 70.9578 55.1475 66.9316C59.476 62.9055 65.1681 60.6666 71.0791 60.6631C71.3813 60.6631 71.6652 60.6634 71.9482 60.6797L72.4766 60.71V17.2881C72.4744 15.6431 71.141 14.3097 69.4961 14.3076H56.2012V19.6924C56.2011 20.0732 56.0494 20.4388 55.7803 20.708C55.5111 20.9772 55.1455 21.1279 54.7646 21.1279H21.1191C20.326 21.1278 19.6828 20.4861 19.6826 19.6924V14.3076Z" fill="white" stroke="black"/>
<path d="M34.7275 1.25977C36.7541 0.246932 39.1395 0.246924 41.166 1.25977C43.1924 2.27346 44.6234 4.18091 45.0293 6.40918L45.1045 6.82031H54.7656C55.1464 6.82034 55.512 6.97114 55.7812 7.24023C56.0505 7.5095 56.2021 7.87589 56.2021 8.25684V19.6904C56.2021 20.4843 55.5589 21.1269 54.7656 21.127H21.1201C20.3268 21.127 19.6836 20.4844 19.6836 19.6904V8.25684C19.6836 7.46363 20.3269 6.82031 21.1201 6.82031H30.7891L30.8633 6.40918C31.2437 4.32009 32.5259 2.51305 34.3545 1.45996L34.7275 1.25977ZM42.252 7.68066C42.2138 6.16082 41.3811 4.77214 40.0586 4.02344C38.7362 3.27484 37.1173 3.27475 35.7949 4.02344C34.4714 4.77226 33.6397 6.16047 33.6006 7.67969V7.69238C33.6006 7.81049 33.6014 7.95261 33.623 8.11621V8.11719C33.6626 8.52093 33.5288 8.92252 33.2549 9.22363C32.9808 9.52401 32.5929 9.69429 32.1865 9.69238H22.5557V10.1934L22.5566 17.7549V18.2549H53.3291V9.69238H43.667C43.2604 9.69427 42.8715 9.5238 42.5977 9.22363H42.5967C42.3235 8.92301 42.1909 8.52125 42.2305 8.11719V8.11621C42.2439 7.97911 42.252 7.84397 42.252 7.69238V7.68066Z" fill="white" stroke="black"/>
<path d="M11.2705 20.248C12.0638 20.2481 12.707 20.8907 12.707 21.6846V92.1455C12.707 92.4785 12.5915 92.8003 12.3818 93.0566L12.2861 93.1621C12.0169 93.4312 11.6513 93.582 11.2705 93.582C10.4773 93.582 9.83398 92.9387 9.83398 92.1455V21.6846C9.83398 20.8906 10.4772 20.248 11.2705 20.248Z" fill="#6D95FC" stroke="black"/>
<path d="M64.6025 20.2461C65.3957 20.2461 66.0391 20.8894 66.0391 21.6826V63.0732C66.0391 63.4542 65.8874 63.8196 65.6182 64.0889C65.3489 64.3581 64.9834 64.5097 64.6025 64.5098C63.8093 64.5098 63.166 63.8664 63.166 63.0732V21.6826C63.166 20.8894 63.8093 20.2461 64.6025 20.2461Z" fill="#6D95FC" stroke="black"/>
<path d="M18.626 66.3975H56.292C57.0852 66.3975 57.7285 67.0408 57.7285 67.834C57.7285 68.6279 57.0853 69.2705 56.292 69.2705H18.626C17.8327 69.2705 17.1895 68.6279 17.1895 67.834C17.1895 67.0408 17.8328 66.3975 18.626 66.3975Z" fill="#6D95FC" stroke="black"/>
<path d="M18.6279 73.8887H50.9385C51.7318 73.8887 52.375 74.5313 52.375 75.3252C52.3749 76.1183 51.7316 76.7617 50.9385 76.7617H18.6279C17.8348 76.7617 17.1915 76.1184 17.1914 75.3252C17.1914 74.5313 17.8346 73.8887 18.6279 73.8887Z" fill="#6D95FC" stroke="black"/>
<path d="M18.626 81.3779H49.1641C49.9572 81.3781 50.6006 82.0213 50.6006 82.8145C50.6005 83.6075 49.9571 84.2508 49.1641 84.251H18.626C17.8328 84.251 17.1895 83.6076 17.1895 82.8145C17.1895 82.0212 17.8328 81.3779 18.626 81.3779Z" fill="#6D95FC" stroke="black"/>
<path d="M18.6279 88.8662H50.0293C50.823 88.8664 51.4648 89.5095 51.4648 90.3027C51.4648 91.0959 50.823 91.739 50.0293 91.7393H18.6279C17.8348 91.7393 17.1915 91.0959 17.1914 90.3027C17.1914 89.5095 17.8347 88.8662 18.6279 88.8662Z" fill="#6D95FC" stroke="black"/>
<path d="M71.0967 60.6494C77.304 60.6503 83.257 63.1164 87.6465 67.5059C91.8988 71.759 94.3445 77.4795 94.4932 83.4766L94.5 84.0576C94.4922 90.2625 92.0243 96.2119 87.6367 100.599C83.249 104.986 77.2996 107.454 71.0947 107.46L70.5137 107.453C64.5171 107.304 58.7972 104.857 54.5449 100.604C50.1555 96.2151 47.6895 90.2613 47.6895 84.0537C47.6895 77.8467 50.1558 71.8933 54.5449 67.5049C58.7981 63.2526 64.5186 60.805 70.5156 60.6562L71.0967 60.6494ZM71.0947 63.5244C65.6491 63.5245 60.427 65.6883 56.5762 69.5381C52.7254 73.3889 50.5626 78.6111 50.5625 84.0566C50.5625 89.5023 52.7253 94.7253 56.5762 98.5762C60.427 102.426 65.6491 104.59 71.0947 104.59C76.5405 104.59 81.7633 102.426 85.6133 98.5762C89.4641 94.7253 91.6279 89.5023 91.6279 84.0566H91.627C91.619 78.6147 89.4535 73.397 85.6045 69.5498C81.8734 65.8205 76.8557 63.6728 71.5947 63.54V63.5244H71.0947Z" fill="white" stroke="black"/>
<path d="M77.6475 76.6455C78.2118 76.1098 79.1017 76.1213 79.6523 76.6719C80.2029 77.2226 80.2138 78.1125 79.6777 78.6768L66.8594 91.4951C66.5924 91.7608 66.2316 91.9101 65.8545 91.9131C65.4746 91.9118 65.1109 91.7609 64.8428 91.4922H64.8418L62.4971 89.1494L62.4961 89.1484C62.2273 88.8796 62.0762 88.5142 62.0762 88.1328C62.0762 87.7997 62.1918 87.478 62.4014 87.2227L62.4971 87.1172C63.0584 86.5565 63.9691 86.5564 64.5293 87.1172L65.4971 88.0859L65.8506 88.4395L66.2041 88.0859L77.6475 76.6455Z" fill="#6D95FC" stroke="black"/>
<path d="M71.0967 66.7861C75.6789 66.787 80.0738 68.6074 83.3145 71.8486C86.554 75.089 88.3749 79.4852 88.374 84.0674L88.3682 84.4961C88.2528 88.9212 86.4444 93.1408 83.3066 96.2783C80.0671 99.5173 75.6754 101.339 71.0947 101.344L70.666 101.339C66.3811 101.233 62.2884 99.5372 59.1836 96.582L58.877 96.2822L58.5771 95.9756C55.5244 92.7676 53.8165 88.5044 53.8164 84.0645C53.8164 79.4822 55.6374 75.0873 58.8779 71.8467C62.018 68.7075 66.2404 66.9007 70.668 66.791L71.0967 66.7861ZM71.0947 69.6621C67.2744 69.6622 63.6101 71.1801 60.9082 73.8818C58.2074 76.5828 56.6895 80.2471 56.6895 84.0674C56.6895 87.7683 58.1138 91.323 60.6582 93.998L60.9082 94.2549C63.6099 96.9556 67.2745 98.4735 71.0947 98.4736C74.9151 98.4736 78.5801 96.9557 81.2812 94.2549C83.9831 91.553 85.501 87.8878 85.501 84.0674L85.4961 83.709C85.4003 80.0196 83.8937 76.5012 81.2773 73.8857C78.5773 71.1848 74.915 69.6667 71.0957 69.6621H71.0947Z" fill="white" stroke="black"/>
<path d="M36.0166 32.6152C36.0166 33.2491 35.6027 33.8078 34.9971 33.9912H34.9961C33.5017 34.4466 32.131 35.2397 30.9902 36.3076H30.9893C30.5573 36.7137 29.9236 36.8103 29.3945 36.5605L29.29 36.5059L26.0469 34.6318L25.6133 34.3818L25.3633 34.8154L23.9453 37.2725L23.6953 37.7051L24.1279 37.9551L27.3691 39.8262C27.9169 40.1433 28.1924 40.7796 28.0488 41.3955C27.6934 42.9191 27.6934 44.5047 28.0488 46.0283H28.0498C28.194 46.6443 27.9176 47.2827 27.3691 47.5996L24.1279 49.4697L23.6953 49.7197L23.9453 50.1533L25.3633 52.6104L25.6133 53.043L26.0469 52.793L29.29 50.9199C29.8382 50.6039 30.5286 50.684 30.9893 51.1172L30.9902 51.1182C32.1309 52.186 33.5018 52.9782 34.9961 53.4336L34.9971 53.4346C35.6025 53.618 36.0164 54.1759 36.0166 54.8096L36.0156 58.5498V59.0498H39.8535V54.8076C39.8535 54.1742 40.2685 53.6145 40.875 53.4316H40.876C42.3715 52.978 43.7427 52.1863 44.8828 51.1182L44.8838 51.1172C45.3445 50.6843 46.0341 50.6042 46.582 50.9199L49.8262 52.793L50.2588 53.043L50.5088 52.6104L51.9277 50.1533L52.1777 49.7197L51.7441 49.4697L48.5039 47.5996C47.9554 47.2827 47.679 46.6443 47.8232 46.0283V46.0273C48.1758 44.5035 48.1758 42.9196 47.8232 41.3965V41.3955C47.6797 40.7795 47.956 40.1432 48.5039 39.8262L51.7441 37.9551L52.1777 37.7051L51.9277 37.2725L50.5088 34.8154L50.2588 34.3828L49.8262 34.6318L46.583 36.5029H46.582C46.0689 36.7997 45.4299 36.749 44.9717 36.3848L44.8828 36.3076C43.7422 35.2397 42.3713 34.4466 40.877 33.9912H40.875C40.2685 33.8084 39.8535 33.2487 39.8535 32.6152V28.374H36.0166V32.6152ZM33.1436 55.8311L32.8408 55.7012C31.8678 55.2838 30.949 54.752 30.1025 54.1172L29.8379 53.9189L29.5527 54.084L25.9219 56.1807H25.9209L25.8047 56.248C25.4752 56.4384 25.0826 56.4903 24.7148 56.3916C24.3929 56.3052 24.1127 56.1093 23.9199 55.8408L23.8428 55.7217L20.4873 49.9121H20.4863C20.2961 49.5816 20.2452 49.1886 20.3438 48.8213C20.4425 48.4535 20.6838 48.1398 21.0137 47.9492L24.7588 45.7881L25.0449 45.623L25.0049 45.2949C24.8775 44.2439 24.8775 43.1809 25.0049 42.1299L25.0449 41.8018L24.7588 41.6367L21.0137 39.4756C20.6838 39.2849 20.4424 38.9714 20.3438 38.6035C20.2575 38.2819 20.2866 37.9413 20.4229 37.6396L20.4873 37.5127L23.8428 31.7041C24.0334 31.3742 24.3469 31.1329 24.7148 31.0342C25.0827 30.9355 25.4751 30.9873 25.8047 31.1777L29.5518 33.3418L29.668 33.4082H29.9697L30.1025 33.3076C30.9478 32.6722 31.8677 32.1411 32.8408 31.7246L33.1436 31.5947V26.9375C33.1436 26.1437 33.7869 25.5012 34.5801 25.501H41.2891C41.67 25.501 42.0364 25.6526 42.3057 25.9219C42.5747 26.1911 42.7256 26.5567 42.7256 26.9375V31.2637H43.2256L43.0303 31.7227C44.0041 32.138 44.9232 32.6702 45.7695 33.3057L46.0342 33.5039L46.3203 33.3389L50.0674 31.1777H50.0684C50.3979 30.9874 50.7904 30.9355 51.1582 31.0342C51.5258 31.1329 51.8397 31.3735 52.0303 31.7031L55.3848 37.5127C55.5755 37.8434 55.627 38.2358 55.5283 38.6035C55.4296 38.9713 55.1891 39.2849 54.8594 39.4756L51.2275 41.5703H50.7959L50.8652 42.1318C50.93 42.6554 50.9618 43.1826 50.9609 43.7109V43.7129C50.9618 44.2412 50.9307 44.77 50.8682 45.2959L50.8291 45.623L51.1143 45.7881L54.8594 47.9492C55.189 48.1398 55.4296 48.4536 55.5283 48.8213C55.6269 49.1889 55.5753 49.5814 55.3848 49.9121L52.0303 55.7217C51.6335 56.4073 50.7552 56.6418 50.0684 56.2451H50.0674L46.3213 54.0811L46.2051 54.0146H45.9023L45.7686 54.1152C44.9239 54.7526 44.0043 55.2848 43.0303 55.7002L42.7256 55.8301V60.4863C42.7255 60.8668 42.5745 61.2315 42.3047 61.502C42.0354 61.771 41.6698 61.9229 41.2891 61.9229H34.5801C33.7871 61.9227 33.1437 61.2793 33.1436 60.4863V55.8311Z" fill="#6D95FC" stroke="black"/>
<path d="M37.9385 36.6348C39.8155 36.6348 41.616 37.3808 42.9434 38.708C44.1877 39.9523 44.921 41.6128 45.0078 43.3623L45.0166 43.7139C45.0149 45.4736 44.3582 47.1653 43.1826 48.4629L42.9404 48.7168C41.613 50.0442 39.8128 50.7911 37.9355 50.792C36.0584 50.792 34.2583 50.0442 32.9316 48.7168H32.9307C31.6036 47.3895 30.8585 45.589 30.8594 43.7119L30.8682 43.3604C30.9551 41.611 31.6884 39.9505 32.9326 38.707C34.2609 37.3796 36.0612 36.6348 37.9385 36.6348ZM37.9355 39.5078C36.8205 39.5088 35.7508 39.9516 34.9629 40.7402C34.174 41.5292 33.7315 42.6001 33.7324 43.7148L33.7373 43.9229C33.7889 44.9625 34.2245 45.949 34.9639 46.6885H34.9648C35.7043 47.4269 36.6911 47.8633 37.7305 47.9141L37.9385 47.9189C39.054 47.9189 40.1235 47.4751 40.9121 46.6865C41.7011 45.8984 42.1435 44.8281 42.1436 43.7139V43.7129C42.1425 42.5969 41.6988 41.528 40.9102 40.7393V40.7383C40.1205 39.9497 39.051 39.5078 37.9355 39.5078Z" fill="#6D95FC" stroke="black"/>
</svg>
